%
M48
M72
T01C0.04000
T02C0.20000
%
T01
X23750Y122500
X33750Y122500
X43750Y122500
X53750Y122500
X63750Y122500
X73750Y122500
X83750Y122500
X93750Y122500
X103750Y122500
X113750Y122500
X123750Y122500
X133750Y122500
X143750Y122500
X153750Y122500
X163750Y122500
X173750Y122500
X183750Y122500
X193750Y122500
X203750Y122500
X213750Y122500
X223750Y122500
X233750Y122500
X243750Y122500
X253750Y122500
X263750Y122500
X263750Y132500
X253750Y132500
X243750Y132500
X233750Y132500
X223750Y132500
X213750Y132500
X203750Y132500
X193750Y132500
X183750Y132500
X173750Y132500
X163750Y132500
X153750Y132500
X143750Y132500
X133750Y132500
X123750Y132500
X113750Y132500
X103750Y132500
X93750Y132500
X83750Y132500
X73750Y132500
X63750Y132500
X53750Y132500
X43750Y132500
X33750Y132500
X23750Y132500
X23750Y170000
X33750Y170000
X43750Y170000
X53750Y170000
X63750Y170000
X73750Y170000
X83750Y170000
X93750Y170000
X103750Y170000
X113750Y170000
X123750Y170000
X133750Y170000
X143750Y170000
X153750Y170000
X163750Y170000
X173750Y170000
X183750Y170000
X193750Y170000
X203750Y170000
X213750Y170000
X223750Y170000
X233750Y170000
X243750Y170000
X253750Y170000
X263750Y170000
X263750Y180000
X253750Y180000
X243750Y180000
X233750Y180000
X223750Y180000
X213750Y180000
X203750Y180000
X193750Y180000
X183750Y180000
X173750Y180000
X163750Y180000
X153750Y180000
X143750Y180000
X133750Y180000
X123750Y180000
X113750Y180000
X103750Y180000
X93750Y180000
X83750Y180000
X73750Y180000
X63750Y180000
X53750Y180000
X43750Y180000
X33750Y180000
X23750Y180000
T02
X33750Y87500
X253750Y67500
M30
