G75*
%MOIN*%
%OFA0B0*%
%FSLAX25Y25*%
%IPPOS*%
%LPD*%
%AMOC8*
5,1,8,0,0,1.08239X$1,22.5*
%
%ADD10C,0.20800*%
%ADD11R,2.60000X0.35000*%
%ADD12C,0.06800*%
D10*
X0033750Y0087500D03*
X0253750Y0067500D03*
D11*
X0143750Y0022500D03*
D12*
X0143750Y0122500D03*
X0153750Y0122500D03*
X0163750Y0122500D03*
X0173750Y0122500D03*
X0183750Y0122500D03*
X0193750Y0122500D03*
X0203750Y0122500D03*
X0213750Y0122500D03*
X0223750Y0122500D03*
X0233750Y0122500D03*
X0243750Y0122500D03*
X0253750Y0122500D03*
X0263750Y0122500D03*
X0263750Y0132500D03*
X0253750Y0132500D03*
X0243750Y0132500D03*
X0233750Y0132500D03*
X0223750Y0132500D03*
X0213750Y0132500D03*
X0203750Y0132500D03*
X0193750Y0132500D03*
X0183750Y0132500D03*
X0173750Y0132500D03*
X0163750Y0132500D03*
X0153750Y0132500D03*
X0143750Y0132500D03*
X0133750Y0132500D03*
X0123750Y0132500D03*
X0113750Y0132500D03*
X0103750Y0132500D03*
X0093750Y0132500D03*
X0083750Y0132500D03*
X0073750Y0132500D03*
X0063750Y0132500D03*
X0053750Y0132500D03*
X0043750Y0132500D03*
X0033750Y0132500D03*
X0023750Y0132500D03*
X0023750Y0122500D03*
X0033750Y0122500D03*
X0043750Y0122500D03*
X0053750Y0122500D03*
X0063750Y0122500D03*
X0073750Y0122500D03*
X0083750Y0122500D03*
X0093750Y0122500D03*
X0103750Y0122500D03*
X0113750Y0122500D03*
X0123750Y0122500D03*
X0133750Y0122500D03*
X0133750Y0170000D03*
X0123750Y0170000D03*
X0113750Y0170000D03*
X0103750Y0170000D03*
X0093750Y0170000D03*
X0083750Y0170000D03*
X0073750Y0170000D03*
X0063750Y0170000D03*
X0053750Y0170000D03*
X0043750Y0170000D03*
X0033750Y0170000D03*
X0023750Y0170000D03*
X0023750Y0180000D03*
X0033750Y0180000D03*
X0043750Y0180000D03*
X0053750Y0180000D03*
X0063750Y0180000D03*
X0073750Y0180000D03*
X0083750Y0180000D03*
X0093750Y0180000D03*
X0103750Y0180000D03*
X0113750Y0180000D03*
X0123750Y0180000D03*
X0133750Y0180000D03*
X0143750Y0180000D03*
X0153750Y0180000D03*
X0163750Y0180000D03*
X0173750Y0180000D03*
X0183750Y0180000D03*
X0193750Y0180000D03*
X0203750Y0180000D03*
X0213750Y0180000D03*
X0223750Y0180000D03*
X0233750Y0180000D03*
X0243750Y0180000D03*
X0253750Y0180000D03*
X0263750Y0180000D03*
X0263750Y0170000D03*
X0253750Y0170000D03*
X0243750Y0170000D03*
X0233750Y0170000D03*
X0223750Y0170000D03*
X0213750Y0170000D03*
X0203750Y0170000D03*
X0193750Y0170000D03*
X0183750Y0170000D03*
X0173750Y0170000D03*
X0163750Y0170000D03*
X0153750Y0170000D03*
X0143750Y0170000D03*
M02*
