G75*
%MOIN*%
%OFA0B0*%
%FSLAX25Y25*%
%IPPOS*%
%LPD*%
%AMOC8*
5,1,8,0,0,1.08239X$1,22.5*
%
%ADD10C,0.06000*%
%ADD11C,0.05600*%
%ADD12R,0.01200X0.02400*%
%ADD13C,0.02400*%
%ADD14R,0.05118X0.06299*%
%ADD15C,0.03962*%
%ADD16C,0.03000*%
%ADD17C,0.02500*%
%ADD18C,0.05906*%
%ADD19C,0.04000*%
%ADD20R,0.03962X0.03962*%
D10*
X0140000Y0049000D03*
X0140000Y0059000D03*
X0140000Y0069000D03*
X0140000Y0079000D03*
X0140000Y0089000D03*
X0140000Y0099000D03*
X0140000Y0109000D03*
X0140000Y0119000D03*
X0140000Y0129000D03*
X0140000Y0139000D03*
X0140000Y0149000D03*
X0140000Y0159000D03*
X0140000Y0169000D03*
X0140000Y0179000D03*
X0140000Y0189000D03*
X0140000Y0199000D03*
X0140000Y0209000D03*
X0140000Y0219000D03*
X0140000Y0229000D03*
X0140000Y0239000D03*
X0140000Y0249000D03*
X0140000Y0259000D03*
X0140000Y0269000D03*
X0140000Y0279000D03*
X0140000Y0289000D03*
X0150000Y0289000D03*
X0150000Y0279000D03*
X0150000Y0269000D03*
X0150000Y0259000D03*
X0150000Y0249000D03*
X0150000Y0239000D03*
X0150000Y0229000D03*
X0150000Y0219000D03*
X0150000Y0209000D03*
X0150000Y0199000D03*
X0150000Y0189000D03*
X0150000Y0179000D03*
X0150000Y0169000D03*
X0150000Y0159000D03*
X0150000Y0149000D03*
X0150000Y0139000D03*
X0150000Y0129000D03*
X0150000Y0119000D03*
X0150000Y0109000D03*
X0150000Y0099000D03*
X0150000Y0089000D03*
X0150000Y0079000D03*
X0150000Y0069000D03*
X0150000Y0059000D03*
X0150000Y0049000D03*
D11*
X0035000Y0024000D02*
X0010000Y0024000D01*
X0010000Y0034000D02*
X0035000Y0034000D01*
X0035000Y0044000D02*
X0010000Y0044000D01*
X0010000Y0054000D02*
X0035000Y0054000D01*
X0035000Y0064000D02*
X0010000Y0064000D01*
X0010000Y0074000D02*
X0035000Y0074000D01*
X0035000Y0084000D02*
X0010000Y0084000D01*
X0010000Y0094000D02*
X0035000Y0094000D01*
X0035000Y0104000D02*
X0010000Y0104000D01*
X0010000Y0114000D02*
X0035000Y0114000D01*
X0035000Y0124000D02*
X0010000Y0124000D01*
X0010000Y0134000D02*
X0035000Y0134000D01*
X0035000Y0144000D02*
X0010000Y0144000D01*
X0010000Y0154000D02*
X0035000Y0154000D01*
X0035000Y0164000D02*
X0010000Y0164000D01*
X0010000Y0174000D02*
X0035000Y0174000D01*
X0035000Y0184000D02*
X0010000Y0184000D01*
X0010000Y0194000D02*
X0035000Y0194000D01*
X0035000Y0204000D02*
X0010000Y0204000D01*
X0010000Y0214000D02*
X0035000Y0214000D01*
X0035000Y0224000D02*
X0010000Y0224000D01*
X0010000Y0234000D02*
X0035000Y0234000D01*
X0035000Y0244000D02*
X0010000Y0244000D01*
X0010000Y0254000D02*
X0035000Y0254000D01*
X0035000Y0264000D02*
X0010000Y0264000D01*
X0010000Y0274000D02*
X0035000Y0274000D01*
X0035000Y0284000D02*
X0010000Y0284000D01*
X0010000Y0294000D02*
X0035000Y0294000D01*
X0035000Y0304000D02*
X0010000Y0304000D01*
X0010000Y0314000D02*
X0035000Y0314000D01*
D12*
X0050000Y0314000D03*
X0050000Y0304000D03*
X0050000Y0294000D03*
X0050000Y0284000D03*
X0050000Y0274000D03*
X0050000Y0264000D03*
X0050000Y0254000D03*
X0050000Y0244000D03*
X0050000Y0234000D03*
X0050000Y0224000D03*
X0050000Y0214000D03*
X0050000Y0204000D03*
X0050000Y0194000D03*
X0050000Y0184000D03*
X0050000Y0174000D03*
X0050000Y0164000D03*
X0050000Y0154000D03*
X0050000Y0144000D03*
X0050000Y0134000D03*
X0050000Y0124000D03*
X0050000Y0114000D03*
X0050000Y0104000D03*
X0050000Y0094000D03*
X0050000Y0084000D03*
X0050000Y0074000D03*
X0050000Y0064000D03*
X0050000Y0054000D03*
X0050000Y0044000D03*
X0050000Y0034000D03*
X0050000Y0024000D03*
D13*
X0035000Y0024000D01*
X0035000Y0034000D02*
X0050000Y0034000D01*
X0050000Y0044000D02*
X0035000Y0044000D01*
X0035000Y0054000D02*
X0050000Y0054000D01*
X0050000Y0064000D02*
X0035000Y0064000D01*
X0035000Y0074000D02*
X0050000Y0074000D01*
X0050000Y0084000D02*
X0035000Y0084000D01*
X0035000Y0094000D02*
X0050000Y0094000D01*
X0050000Y0104000D02*
X0035000Y0104000D01*
X0035000Y0114000D02*
X0050000Y0114000D01*
X0050000Y0124000D02*
X0035000Y0124000D01*
X0035000Y0134000D02*
X0050000Y0134000D01*
X0050000Y0144000D02*
X0035000Y0144000D01*
X0035000Y0154000D02*
X0050000Y0154000D01*
X0050000Y0164000D02*
X0035000Y0164000D01*
X0035000Y0174000D02*
X0050000Y0174000D01*
X0050000Y0184000D02*
X0035000Y0184000D01*
X0035000Y0194000D02*
X0050000Y0194000D01*
X0050000Y0204000D02*
X0035000Y0204000D01*
X0035000Y0214000D02*
X0050000Y0214000D01*
X0050000Y0224000D02*
X0035000Y0224000D01*
X0035000Y0234000D02*
X0050000Y0234000D01*
X0050000Y0244000D02*
X0035000Y0244000D01*
X0035000Y0254000D02*
X0050000Y0254000D01*
X0050000Y0264000D02*
X0035000Y0264000D01*
X0035000Y0274000D02*
X0050000Y0274000D01*
X0050000Y0284000D02*
X0035000Y0284000D01*
X0035000Y0294000D02*
X0050000Y0294000D01*
X0050000Y0304000D02*
X0035000Y0304000D01*
X0035000Y0314000D02*
X0050000Y0314000D01*
X0135000Y0134000D02*
X0145000Y0134000D01*
D14*
X0088740Y0104000D03*
X0088740Y0094000D03*
X0088740Y0084000D03*
X0088740Y0074000D03*
X0081260Y0074000D03*
X0081260Y0084000D03*
X0081260Y0094000D03*
X0081260Y0104000D03*
D15*
X0125000Y0024000D03*
X0167500Y0084000D03*
X0167500Y0094000D03*
D16*
X0150000Y0059000D02*
X0157500Y0051500D01*
X0157500Y0041500D01*
X0150000Y0034000D01*
X0050000Y0034000D01*
X0050000Y0024000D02*
X0125000Y0024000D01*
D17*
X0115000Y0039000D02*
X0055000Y0039000D01*
X0050000Y0044000D01*
X0050000Y0054000D02*
X0055000Y0059000D01*
X0100000Y0059000D01*
X0105000Y0064000D01*
X0125000Y0064000D01*
X0135000Y0074000D01*
X0145000Y0074000D01*
X0150000Y0079000D01*
X0145000Y0084000D02*
X0150000Y0089000D01*
X0145000Y0094000D02*
X0150000Y0099000D01*
X0145000Y0104000D02*
X0150000Y0109000D01*
X0145000Y0114000D02*
X0150000Y0119000D01*
X0145000Y0124000D02*
X0150000Y0129000D01*
X0145000Y0134000D02*
X0150000Y0139000D01*
X0145000Y0144000D02*
X0150000Y0149000D01*
X0145000Y0154000D02*
X0150000Y0159000D01*
X0145000Y0164000D02*
X0150000Y0169000D01*
X0145000Y0174000D02*
X0150000Y0179000D01*
X0145000Y0184000D02*
X0150000Y0189000D01*
X0145000Y0194000D02*
X0150000Y0199000D01*
X0145000Y0204000D02*
X0150000Y0209000D01*
X0145000Y0204000D02*
X0135000Y0204000D01*
X0130000Y0199000D01*
X0080000Y0199000D01*
X0065000Y0184000D01*
X0050000Y0184000D01*
X0050000Y0174000D02*
X0065000Y0174000D01*
X0080000Y0189000D01*
X0130000Y0189000D01*
X0135000Y0194000D01*
X0145000Y0194000D01*
X0145000Y0184000D02*
X0135000Y0184000D01*
X0130000Y0179000D01*
X0080000Y0179000D01*
X0065000Y0164000D01*
X0050000Y0164000D01*
X0050000Y0154000D02*
X0065000Y0154000D01*
X0080000Y0169000D01*
X0130000Y0169000D01*
X0135000Y0174000D01*
X0145000Y0174000D01*
X0145000Y0164000D02*
X0135000Y0164000D01*
X0130000Y0159000D01*
X0080000Y0159000D01*
X0065000Y0144000D01*
X0050000Y0144000D01*
X0050000Y0134000D02*
X0065000Y0134000D01*
X0080000Y0149000D01*
X0130000Y0149000D01*
X0135000Y0154000D01*
X0145000Y0154000D01*
X0145000Y0144000D02*
X0135000Y0144000D01*
X0130000Y0139000D01*
X0080000Y0139000D01*
X0065000Y0124000D01*
X0050000Y0124000D01*
X0050000Y0114000D02*
X0065000Y0114000D01*
X0080000Y0129000D01*
X0130000Y0129000D01*
X0135000Y0134000D01*
X0135000Y0124000D02*
X0145000Y0124000D01*
X0145000Y0114000D02*
X0135000Y0114000D01*
X0115000Y0094000D01*
X0088740Y0094000D01*
X0088740Y0084000D02*
X0115000Y0084000D01*
X0135000Y0104000D01*
X0145000Y0104000D01*
X0145000Y0094000D02*
X0135000Y0094000D01*
X0115000Y0074000D01*
X0088740Y0074000D01*
X0081260Y0074000D02*
X0050000Y0074000D01*
X0050000Y0064000D02*
X0097500Y0064000D01*
X0102500Y0069000D01*
X0120000Y0069000D01*
X0135000Y0084000D01*
X0145000Y0084000D01*
X0150000Y0069000D02*
X0145000Y0064000D01*
X0135000Y0064000D01*
X0122500Y0051500D01*
X0122500Y0046500D01*
X0115000Y0039000D01*
X0115000Y0104000D02*
X0088740Y0104000D01*
X0081260Y0104000D02*
X0050000Y0104000D01*
X0050000Y0094000D02*
X0081260Y0094000D01*
X0081260Y0084000D02*
X0050000Y0084000D01*
X0050000Y0204000D02*
X0065000Y0204000D01*
X0080000Y0219000D01*
X0130000Y0219000D01*
X0135000Y0224000D01*
X0145000Y0224000D01*
X0150000Y0229000D01*
X0145000Y0234000D02*
X0150000Y0239000D01*
X0145000Y0244000D02*
X0150000Y0249000D01*
X0145000Y0254000D02*
X0150000Y0259000D01*
X0145000Y0264000D02*
X0150000Y0269000D01*
X0145000Y0274000D02*
X0150000Y0279000D01*
X0145000Y0284000D02*
X0150000Y0289000D01*
X0145000Y0284000D02*
X0135000Y0284000D01*
X0130000Y0279000D01*
X0122500Y0279000D01*
X0117500Y0274000D01*
X0075000Y0274000D01*
X0065000Y0264000D01*
X0050000Y0264000D01*
X0050000Y0254000D02*
X0065000Y0254000D01*
X0080000Y0269000D01*
X0130000Y0269000D01*
X0135000Y0274000D01*
X0145000Y0274000D01*
X0145000Y0264000D02*
X0135000Y0264000D01*
X0130000Y0259000D01*
X0080000Y0259000D01*
X0065000Y0244000D01*
X0050000Y0244000D01*
X0050000Y0234000D02*
X0065000Y0234000D01*
X0080000Y0249000D01*
X0130000Y0249000D01*
X0135000Y0254000D01*
X0145000Y0254000D01*
X0145000Y0244000D02*
X0135000Y0244000D01*
X0130000Y0239000D01*
X0080000Y0239000D01*
X0065000Y0224000D01*
X0050000Y0224000D01*
X0050000Y0214000D02*
X0065000Y0214000D01*
X0080000Y0229000D01*
X0130000Y0229000D01*
X0135000Y0234000D01*
X0145000Y0234000D01*
X0135000Y0124000D02*
X0115000Y0104000D01*
D18*
X0167500Y0094000D02*
X0167500Y0084000D01*
X0167500Y0021500D01*
X0052500Y0006500D01*
X0167500Y0094000D02*
X0167500Y0131500D01*
X0167500Y0226500D01*
X0167500Y0316500D01*
X0052500Y0331500D01*
D19*
X0051437Y0331500D01*
D20*
X0052500Y0331500D03*
X0167500Y0316500D03*
X0167500Y0226500D03*
X0167500Y0131500D03*
X0167500Y0021500D03*
X0052500Y0006500D03*
M02*
