G75*
%MOIN*%
%OFA0B0*%
%FSLAX25Y25*%
%IPPOS*%
%LPD*%
%AMOC8*
5,1,8,0,0,1.08239X$1,22.5*
%
%ADD10C,0.00500*%
%ADD11C,0.00000*%
%ADD12C,0.00600*%
%ADD13C,0.00300*%
%ADD14C,0.00400*%
%ADD15R,0.05118X0.01969*%
D10*
X0013750Y0007500D02*
X0016250Y0005000D01*
X0271250Y0005000D01*
X0273750Y0007500D01*
X0273750Y0045000D01*
X0273750Y0097500D01*
X0286250Y0107500D01*
X0286250Y0195000D01*
X0283750Y0197500D01*
X0003750Y0197500D01*
X0001250Y0195000D01*
X0001250Y0107500D01*
X0013750Y0097500D01*
X0013750Y0045000D01*
X0013750Y0007500D01*
D11*
X0023750Y0087500D02*
X0023753Y0087745D01*
X0023762Y0087991D01*
X0023777Y0088236D01*
X0023798Y0088480D01*
X0023825Y0088724D01*
X0023858Y0088967D01*
X0023897Y0089210D01*
X0023942Y0089451D01*
X0023993Y0089691D01*
X0024050Y0089930D01*
X0024112Y0090167D01*
X0024181Y0090403D01*
X0024255Y0090637D01*
X0024335Y0090869D01*
X0024420Y0091099D01*
X0024511Y0091327D01*
X0024608Y0091552D01*
X0024710Y0091776D01*
X0024818Y0091996D01*
X0024931Y0092214D01*
X0025049Y0092429D01*
X0025173Y0092641D01*
X0025301Y0092850D01*
X0025435Y0093056D01*
X0025574Y0093258D01*
X0025718Y0093457D01*
X0025867Y0093652D01*
X0026020Y0093844D01*
X0026178Y0094032D01*
X0026340Y0094216D01*
X0026508Y0094395D01*
X0026679Y0094571D01*
X0026855Y0094742D01*
X0027034Y0094910D01*
X0027218Y0095072D01*
X0027406Y0095230D01*
X0027598Y0095383D01*
X0027793Y0095532D01*
X0027992Y0095676D01*
X0028194Y0095815D01*
X0028400Y0095949D01*
X0028609Y0096077D01*
X0028821Y0096201D01*
X0029036Y0096319D01*
X0029254Y0096432D01*
X0029474Y0096540D01*
X0029698Y0096642D01*
X0029923Y0096739D01*
X0030151Y0096830D01*
X0030381Y0096915D01*
X0030613Y0096995D01*
X0030847Y0097069D01*
X0031083Y0097138D01*
X0031320Y0097200D01*
X0031559Y0097257D01*
X0031799Y0097308D01*
X0032040Y0097353D01*
X0032283Y0097392D01*
X0032526Y0097425D01*
X0032770Y0097452D01*
X0033014Y0097473D01*
X0033259Y0097488D01*
X0033505Y0097497D01*
X0033750Y0097500D01*
X0033995Y0097497D01*
X0034241Y0097488D01*
X0034486Y0097473D01*
X0034730Y0097452D01*
X0034974Y0097425D01*
X0035217Y0097392D01*
X0035460Y0097353D01*
X0035701Y0097308D01*
X0035941Y0097257D01*
X0036180Y0097200D01*
X0036417Y0097138D01*
X0036653Y0097069D01*
X0036887Y0096995D01*
X0037119Y0096915D01*
X0037349Y0096830D01*
X0037577Y0096739D01*
X0037802Y0096642D01*
X0038026Y0096540D01*
X0038246Y0096432D01*
X0038464Y0096319D01*
X0038679Y0096201D01*
X0038891Y0096077D01*
X0039100Y0095949D01*
X0039306Y0095815D01*
X0039508Y0095676D01*
X0039707Y0095532D01*
X0039902Y0095383D01*
X0040094Y0095230D01*
X0040282Y0095072D01*
X0040466Y0094910D01*
X0040645Y0094742D01*
X0040821Y0094571D01*
X0040992Y0094395D01*
X0041160Y0094216D01*
X0041322Y0094032D01*
X0041480Y0093844D01*
X0041633Y0093652D01*
X0041782Y0093457D01*
X0041926Y0093258D01*
X0042065Y0093056D01*
X0042199Y0092850D01*
X0042327Y0092641D01*
X0042451Y0092429D01*
X0042569Y0092214D01*
X0042682Y0091996D01*
X0042790Y0091776D01*
X0042892Y0091552D01*
X0042989Y0091327D01*
X0043080Y0091099D01*
X0043165Y0090869D01*
X0043245Y0090637D01*
X0043319Y0090403D01*
X0043388Y0090167D01*
X0043450Y0089930D01*
X0043507Y0089691D01*
X0043558Y0089451D01*
X0043603Y0089210D01*
X0043642Y0088967D01*
X0043675Y0088724D01*
X0043702Y0088480D01*
X0043723Y0088236D01*
X0043738Y0087991D01*
X0043747Y0087745D01*
X0043750Y0087500D01*
X0043747Y0087255D01*
X0043738Y0087009D01*
X0043723Y0086764D01*
X0043702Y0086520D01*
X0043675Y0086276D01*
X0043642Y0086033D01*
X0043603Y0085790D01*
X0043558Y0085549D01*
X0043507Y0085309D01*
X0043450Y0085070D01*
X0043388Y0084833D01*
X0043319Y0084597D01*
X0043245Y0084363D01*
X0043165Y0084131D01*
X0043080Y0083901D01*
X0042989Y0083673D01*
X0042892Y0083448D01*
X0042790Y0083224D01*
X0042682Y0083004D01*
X0042569Y0082786D01*
X0042451Y0082571D01*
X0042327Y0082359D01*
X0042199Y0082150D01*
X0042065Y0081944D01*
X0041926Y0081742D01*
X0041782Y0081543D01*
X0041633Y0081348D01*
X0041480Y0081156D01*
X0041322Y0080968D01*
X0041160Y0080784D01*
X0040992Y0080605D01*
X0040821Y0080429D01*
X0040645Y0080258D01*
X0040466Y0080090D01*
X0040282Y0079928D01*
X0040094Y0079770D01*
X0039902Y0079617D01*
X0039707Y0079468D01*
X0039508Y0079324D01*
X0039306Y0079185D01*
X0039100Y0079051D01*
X0038891Y0078923D01*
X0038679Y0078799D01*
X0038464Y0078681D01*
X0038246Y0078568D01*
X0038026Y0078460D01*
X0037802Y0078358D01*
X0037577Y0078261D01*
X0037349Y0078170D01*
X0037119Y0078085D01*
X0036887Y0078005D01*
X0036653Y0077931D01*
X0036417Y0077862D01*
X0036180Y0077800D01*
X0035941Y0077743D01*
X0035701Y0077692D01*
X0035460Y0077647D01*
X0035217Y0077608D01*
X0034974Y0077575D01*
X0034730Y0077548D01*
X0034486Y0077527D01*
X0034241Y0077512D01*
X0033995Y0077503D01*
X0033750Y0077500D01*
X0033505Y0077503D01*
X0033259Y0077512D01*
X0033014Y0077527D01*
X0032770Y0077548D01*
X0032526Y0077575D01*
X0032283Y0077608D01*
X0032040Y0077647D01*
X0031799Y0077692D01*
X0031559Y0077743D01*
X0031320Y0077800D01*
X0031083Y0077862D01*
X0030847Y0077931D01*
X0030613Y0078005D01*
X0030381Y0078085D01*
X0030151Y0078170D01*
X0029923Y0078261D01*
X0029698Y0078358D01*
X0029474Y0078460D01*
X0029254Y0078568D01*
X0029036Y0078681D01*
X0028821Y0078799D01*
X0028609Y0078923D01*
X0028400Y0079051D01*
X0028194Y0079185D01*
X0027992Y0079324D01*
X0027793Y0079468D01*
X0027598Y0079617D01*
X0027406Y0079770D01*
X0027218Y0079928D01*
X0027034Y0080090D01*
X0026855Y0080258D01*
X0026679Y0080429D01*
X0026508Y0080605D01*
X0026340Y0080784D01*
X0026178Y0080968D01*
X0026020Y0081156D01*
X0025867Y0081348D01*
X0025718Y0081543D01*
X0025574Y0081742D01*
X0025435Y0081944D01*
X0025301Y0082150D01*
X0025173Y0082359D01*
X0025049Y0082571D01*
X0024931Y0082786D01*
X0024818Y0083004D01*
X0024710Y0083224D01*
X0024608Y0083448D01*
X0024511Y0083673D01*
X0024420Y0083901D01*
X0024335Y0084131D01*
X0024255Y0084363D01*
X0024181Y0084597D01*
X0024112Y0084833D01*
X0024050Y0085070D01*
X0023993Y0085309D01*
X0023942Y0085549D01*
X0023897Y0085790D01*
X0023858Y0086033D01*
X0023825Y0086276D01*
X0023798Y0086520D01*
X0023777Y0086764D01*
X0023762Y0087009D01*
X0023753Y0087255D01*
X0023750Y0087500D01*
X0243750Y0067500D02*
X0243753Y0067745D01*
X0243762Y0067991D01*
X0243777Y0068236D01*
X0243798Y0068480D01*
X0243825Y0068724D01*
X0243858Y0068967D01*
X0243897Y0069210D01*
X0243942Y0069451D01*
X0243993Y0069691D01*
X0244050Y0069930D01*
X0244112Y0070167D01*
X0244181Y0070403D01*
X0244255Y0070637D01*
X0244335Y0070869D01*
X0244420Y0071099D01*
X0244511Y0071327D01*
X0244608Y0071552D01*
X0244710Y0071776D01*
X0244818Y0071996D01*
X0244931Y0072214D01*
X0245049Y0072429D01*
X0245173Y0072641D01*
X0245301Y0072850D01*
X0245435Y0073056D01*
X0245574Y0073258D01*
X0245718Y0073457D01*
X0245867Y0073652D01*
X0246020Y0073844D01*
X0246178Y0074032D01*
X0246340Y0074216D01*
X0246508Y0074395D01*
X0246679Y0074571D01*
X0246855Y0074742D01*
X0247034Y0074910D01*
X0247218Y0075072D01*
X0247406Y0075230D01*
X0247598Y0075383D01*
X0247793Y0075532D01*
X0247992Y0075676D01*
X0248194Y0075815D01*
X0248400Y0075949D01*
X0248609Y0076077D01*
X0248821Y0076201D01*
X0249036Y0076319D01*
X0249254Y0076432D01*
X0249474Y0076540D01*
X0249698Y0076642D01*
X0249923Y0076739D01*
X0250151Y0076830D01*
X0250381Y0076915D01*
X0250613Y0076995D01*
X0250847Y0077069D01*
X0251083Y0077138D01*
X0251320Y0077200D01*
X0251559Y0077257D01*
X0251799Y0077308D01*
X0252040Y0077353D01*
X0252283Y0077392D01*
X0252526Y0077425D01*
X0252770Y0077452D01*
X0253014Y0077473D01*
X0253259Y0077488D01*
X0253505Y0077497D01*
X0253750Y0077500D01*
X0253995Y0077497D01*
X0254241Y0077488D01*
X0254486Y0077473D01*
X0254730Y0077452D01*
X0254974Y0077425D01*
X0255217Y0077392D01*
X0255460Y0077353D01*
X0255701Y0077308D01*
X0255941Y0077257D01*
X0256180Y0077200D01*
X0256417Y0077138D01*
X0256653Y0077069D01*
X0256887Y0076995D01*
X0257119Y0076915D01*
X0257349Y0076830D01*
X0257577Y0076739D01*
X0257802Y0076642D01*
X0258026Y0076540D01*
X0258246Y0076432D01*
X0258464Y0076319D01*
X0258679Y0076201D01*
X0258891Y0076077D01*
X0259100Y0075949D01*
X0259306Y0075815D01*
X0259508Y0075676D01*
X0259707Y0075532D01*
X0259902Y0075383D01*
X0260094Y0075230D01*
X0260282Y0075072D01*
X0260466Y0074910D01*
X0260645Y0074742D01*
X0260821Y0074571D01*
X0260992Y0074395D01*
X0261160Y0074216D01*
X0261322Y0074032D01*
X0261480Y0073844D01*
X0261633Y0073652D01*
X0261782Y0073457D01*
X0261926Y0073258D01*
X0262065Y0073056D01*
X0262199Y0072850D01*
X0262327Y0072641D01*
X0262451Y0072429D01*
X0262569Y0072214D01*
X0262682Y0071996D01*
X0262790Y0071776D01*
X0262892Y0071552D01*
X0262989Y0071327D01*
X0263080Y0071099D01*
X0263165Y0070869D01*
X0263245Y0070637D01*
X0263319Y0070403D01*
X0263388Y0070167D01*
X0263450Y0069930D01*
X0263507Y0069691D01*
X0263558Y0069451D01*
X0263603Y0069210D01*
X0263642Y0068967D01*
X0263675Y0068724D01*
X0263702Y0068480D01*
X0263723Y0068236D01*
X0263738Y0067991D01*
X0263747Y0067745D01*
X0263750Y0067500D01*
X0263747Y0067255D01*
X0263738Y0067009D01*
X0263723Y0066764D01*
X0263702Y0066520D01*
X0263675Y0066276D01*
X0263642Y0066033D01*
X0263603Y0065790D01*
X0263558Y0065549D01*
X0263507Y0065309D01*
X0263450Y0065070D01*
X0263388Y0064833D01*
X0263319Y0064597D01*
X0263245Y0064363D01*
X0263165Y0064131D01*
X0263080Y0063901D01*
X0262989Y0063673D01*
X0262892Y0063448D01*
X0262790Y0063224D01*
X0262682Y0063004D01*
X0262569Y0062786D01*
X0262451Y0062571D01*
X0262327Y0062359D01*
X0262199Y0062150D01*
X0262065Y0061944D01*
X0261926Y0061742D01*
X0261782Y0061543D01*
X0261633Y0061348D01*
X0261480Y0061156D01*
X0261322Y0060968D01*
X0261160Y0060784D01*
X0260992Y0060605D01*
X0260821Y0060429D01*
X0260645Y0060258D01*
X0260466Y0060090D01*
X0260282Y0059928D01*
X0260094Y0059770D01*
X0259902Y0059617D01*
X0259707Y0059468D01*
X0259508Y0059324D01*
X0259306Y0059185D01*
X0259100Y0059051D01*
X0258891Y0058923D01*
X0258679Y0058799D01*
X0258464Y0058681D01*
X0258246Y0058568D01*
X0258026Y0058460D01*
X0257802Y0058358D01*
X0257577Y0058261D01*
X0257349Y0058170D01*
X0257119Y0058085D01*
X0256887Y0058005D01*
X0256653Y0057931D01*
X0256417Y0057862D01*
X0256180Y0057800D01*
X0255941Y0057743D01*
X0255701Y0057692D01*
X0255460Y0057647D01*
X0255217Y0057608D01*
X0254974Y0057575D01*
X0254730Y0057548D01*
X0254486Y0057527D01*
X0254241Y0057512D01*
X0253995Y0057503D01*
X0253750Y0057500D01*
X0253505Y0057503D01*
X0253259Y0057512D01*
X0253014Y0057527D01*
X0252770Y0057548D01*
X0252526Y0057575D01*
X0252283Y0057608D01*
X0252040Y0057647D01*
X0251799Y0057692D01*
X0251559Y0057743D01*
X0251320Y0057800D01*
X0251083Y0057862D01*
X0250847Y0057931D01*
X0250613Y0058005D01*
X0250381Y0058085D01*
X0250151Y0058170D01*
X0249923Y0058261D01*
X0249698Y0058358D01*
X0249474Y0058460D01*
X0249254Y0058568D01*
X0249036Y0058681D01*
X0248821Y0058799D01*
X0248609Y0058923D01*
X0248400Y0059051D01*
X0248194Y0059185D01*
X0247992Y0059324D01*
X0247793Y0059468D01*
X0247598Y0059617D01*
X0247406Y0059770D01*
X0247218Y0059928D01*
X0247034Y0060090D01*
X0246855Y0060258D01*
X0246679Y0060429D01*
X0246508Y0060605D01*
X0246340Y0060784D01*
X0246178Y0060968D01*
X0246020Y0061156D01*
X0245867Y0061348D01*
X0245718Y0061543D01*
X0245574Y0061742D01*
X0245435Y0061944D01*
X0245301Y0062150D01*
X0245173Y0062359D01*
X0245049Y0062571D01*
X0244931Y0062786D01*
X0244818Y0063004D01*
X0244710Y0063224D01*
X0244608Y0063448D01*
X0244511Y0063673D01*
X0244420Y0063901D01*
X0244335Y0064131D01*
X0244255Y0064363D01*
X0244181Y0064597D01*
X0244112Y0064833D01*
X0244050Y0065070D01*
X0243993Y0065309D01*
X0243942Y0065549D01*
X0243897Y0065790D01*
X0243858Y0066033D01*
X0243825Y0066276D01*
X0243798Y0066520D01*
X0243777Y0066764D01*
X0243762Y0067009D01*
X0243753Y0067255D01*
X0243750Y0067500D01*
D12*
X0215950Y0085300D02*
X0215950Y0090705D01*
X0214148Y0088903D01*
X0212347Y0090705D01*
X0212347Y0085300D01*
X0210425Y0086201D02*
X0209525Y0085300D01*
X0207723Y0085300D01*
X0206822Y0086201D01*
X0206822Y0087102D01*
X0207723Y0088002D01*
X0209525Y0088002D01*
X0210425Y0088903D01*
X0210425Y0089804D01*
X0209525Y0090705D01*
X0207723Y0090705D01*
X0206822Y0089804D01*
X0204901Y0090705D02*
X0201297Y0085300D01*
X0204901Y0085300D02*
X0201297Y0090705D01*
X0193851Y0090705D02*
X0193851Y0085300D01*
X0193851Y0088002D02*
X0192050Y0088002D01*
X0193851Y0090705D02*
X0190248Y0090705D01*
X0188326Y0090705D02*
X0188326Y0085300D01*
X0184723Y0085300D01*
X0182802Y0085300D02*
X0179199Y0085300D01*
X0177277Y0085300D02*
X0173674Y0090705D01*
X0177277Y0090705D02*
X0173674Y0085300D01*
X0181000Y0088002D02*
X0182802Y0088002D01*
X0182802Y0085300D02*
X0182802Y0090705D01*
X0179199Y0090705D01*
X0166228Y0088903D02*
X0166228Y0087102D01*
X0164426Y0085300D01*
X0162544Y0085300D02*
X0162544Y0090705D01*
X0158941Y0090705D01*
X0157020Y0090705D02*
X0157020Y0085300D01*
X0153417Y0085300D01*
X0151495Y0086201D02*
X0151495Y0088002D01*
X0150594Y0088903D01*
X0148793Y0088903D01*
X0147892Y0088002D01*
X0147892Y0087102D01*
X0151495Y0087102D01*
X0151495Y0086201D02*
X0150594Y0085300D01*
X0148793Y0085300D01*
X0145970Y0085300D02*
X0142367Y0088903D01*
X0140446Y0088903D02*
X0139545Y0088903D01*
X0139545Y0085300D01*
X0140446Y0085300D02*
X0138644Y0085300D01*
X0136762Y0085300D02*
X0134060Y0085300D01*
X0133159Y0086201D01*
X0133159Y0088002D01*
X0134060Y0088903D01*
X0136762Y0088903D01*
X0136762Y0090705D02*
X0136762Y0085300D01*
X0131238Y0085300D02*
X0129436Y0085300D01*
X0130337Y0085300D02*
X0130337Y0090705D01*
X0131238Y0090705D01*
X0127555Y0088002D02*
X0126654Y0088903D01*
X0124852Y0088903D01*
X0123951Y0088002D01*
X0123951Y0087102D01*
X0127555Y0087102D01*
X0127555Y0088002D02*
X0127555Y0086201D01*
X0126654Y0085300D01*
X0124852Y0085300D01*
X0116505Y0085300D02*
X0116505Y0090705D01*
X0112902Y0090705D01*
X0110980Y0090705D02*
X0107377Y0085300D01*
X0104555Y0086201D02*
X0103654Y0085300D01*
X0104555Y0086201D02*
X0104555Y0089804D01*
X0105456Y0088903D02*
X0103654Y0088903D01*
X0101773Y0088002D02*
X0101773Y0086201D01*
X0100872Y0085300D01*
X0099070Y0085300D01*
X0098169Y0087102D02*
X0101773Y0087102D01*
X0101773Y0088002D02*
X0100872Y0088903D01*
X0099070Y0088903D01*
X0098169Y0088002D01*
X0098169Y0087102D01*
X0096248Y0085300D02*
X0096248Y0088903D01*
X0093545Y0088903D01*
X0092645Y0088002D01*
X0092645Y0085300D01*
X0090723Y0086201D02*
X0090723Y0088002D01*
X0089822Y0088903D01*
X0087120Y0088903D01*
X0087120Y0090705D02*
X0087120Y0085300D01*
X0089822Y0085300D01*
X0090723Y0086201D01*
X0085198Y0086201D02*
X0084298Y0085300D01*
X0082496Y0085300D01*
X0081595Y0087102D02*
X0085198Y0087102D01*
X0085198Y0088002D02*
X0085198Y0086201D01*
X0085198Y0088002D02*
X0084298Y0088903D01*
X0082496Y0088903D01*
X0081595Y0088002D01*
X0081595Y0087102D01*
X0079674Y0087102D02*
X0077872Y0088903D01*
X0076971Y0088903D01*
X0075070Y0090705D02*
X0073268Y0088903D01*
X0073268Y0087102D01*
X0075070Y0085300D01*
X0079674Y0085300D02*
X0079674Y0088903D01*
X0107377Y0090705D02*
X0110980Y0085300D01*
X0112902Y0085300D02*
X0116505Y0085300D01*
X0116505Y0088002D02*
X0114704Y0088002D01*
X0139545Y0090705D02*
X0139545Y0091605D01*
X0142367Y0085300D02*
X0145970Y0088903D01*
X0160743Y0088002D02*
X0162544Y0088002D01*
X0164426Y0090705D02*
X0166228Y0088903D01*
D13*
X0172681Y0081970D02*
X0172681Y0081353D01*
X0172681Y0080119D02*
X0172681Y0077650D01*
X0173298Y0077650D02*
X0172064Y0077650D01*
X0170843Y0078267D02*
X0170226Y0077650D01*
X0168374Y0077650D01*
X0168374Y0077033D02*
X0168374Y0080119D01*
X0170226Y0080119D01*
X0170843Y0079502D01*
X0170843Y0078267D01*
X0169608Y0076416D02*
X0168991Y0076416D01*
X0168374Y0077033D01*
X0167160Y0077650D02*
X0167160Y0081353D01*
X0166542Y0080119D02*
X0167160Y0079502D01*
X0166542Y0080119D02*
X0165308Y0080119D01*
X0164691Y0079502D01*
X0164691Y0077650D01*
X0162859Y0078267D02*
X0162859Y0080736D01*
X0163476Y0080119D02*
X0162242Y0080119D01*
X0162859Y0078267D02*
X0162242Y0077650D01*
X0157338Y0078884D02*
X0157338Y0080119D01*
X0156103Y0081353D01*
X0154882Y0080736D02*
X0154882Y0078267D01*
X0154265Y0077650D01*
X0153031Y0077650D01*
X0152414Y0078267D01*
X0151199Y0077650D02*
X0149965Y0078884D01*
X0149965Y0080119D01*
X0151199Y0081353D01*
X0152414Y0080736D02*
X0153031Y0081353D01*
X0154265Y0081353D01*
X0154882Y0080736D01*
X0157338Y0078884D02*
X0156103Y0077650D01*
X0158111Y0073353D02*
X0158111Y0070150D01*
X0159712Y0070150D01*
X0160246Y0070684D01*
X0160246Y0071751D01*
X0159712Y0072285D01*
X0158111Y0072285D01*
X0153801Y0072285D02*
X0152733Y0070150D01*
X0151665Y0072285D01*
X0150578Y0071751D02*
X0150044Y0072285D01*
X0148977Y0072285D01*
X0148443Y0071751D01*
X0148443Y0071218D01*
X0150578Y0071218D01*
X0150578Y0071751D02*
X0150578Y0070684D01*
X0150044Y0070150D01*
X0148977Y0070150D01*
X0147355Y0070150D02*
X0147355Y0072285D01*
X0147355Y0071218D02*
X0146288Y0072285D01*
X0145754Y0072285D01*
X0144670Y0071751D02*
X0144136Y0072285D01*
X0142534Y0072285D01*
X0141447Y0072285D02*
X0140913Y0072285D01*
X0140913Y0070150D01*
X0141447Y0070150D02*
X0140379Y0070150D01*
X0139298Y0070684D02*
X0138764Y0070150D01*
X0137697Y0070150D01*
X0137163Y0070684D01*
X0137163Y0071751D01*
X0137697Y0072285D01*
X0138764Y0072285D01*
X0139298Y0071751D01*
X0139298Y0070684D01*
X0140913Y0073353D02*
X0140913Y0073887D01*
X0144136Y0071218D02*
X0144670Y0071751D01*
X0144136Y0071218D02*
X0143068Y0071218D01*
X0142534Y0070684D01*
X0143068Y0070150D01*
X0144670Y0070150D01*
X0136076Y0070150D02*
X0136076Y0072285D01*
X0134474Y0072285D01*
X0133940Y0071751D01*
X0133940Y0070150D01*
X0129630Y0070150D02*
X0127495Y0070150D01*
X0128562Y0070150D02*
X0128562Y0073353D01*
X0129630Y0072285D01*
X0126407Y0070684D02*
X0125873Y0070684D01*
X0125873Y0070150D01*
X0126407Y0070150D01*
X0126407Y0070684D01*
X0124796Y0070150D02*
X0122661Y0070150D01*
X0123728Y0070150D02*
X0123728Y0073353D01*
X0124796Y0072285D01*
X0121727Y0076416D02*
X0121110Y0076416D01*
X0120493Y0077033D01*
X0120493Y0080119D01*
X0122962Y0080119D02*
X0122962Y0078267D01*
X0122345Y0077650D01*
X0120493Y0077650D01*
X0115596Y0077650D02*
X0115596Y0081353D01*
X0113744Y0081353D01*
X0113127Y0080736D01*
X0113127Y0079502D01*
X0113744Y0078884D01*
X0115596Y0078884D01*
X0114361Y0078884D02*
X0113127Y0077650D01*
X0111912Y0077650D02*
X0111912Y0081353D01*
X0110061Y0081353D01*
X0109444Y0080736D01*
X0109444Y0080119D01*
X0110061Y0079502D01*
X0111912Y0079502D01*
X0110061Y0079502D02*
X0109444Y0078884D01*
X0109444Y0078267D01*
X0110061Y0077650D01*
X0111912Y0077650D01*
X0108229Y0078267D02*
X0107612Y0077650D01*
X0106378Y0077650D01*
X0105760Y0078267D01*
X0105760Y0078884D01*
X0106378Y0079502D01*
X0107612Y0079502D01*
X0108229Y0080119D01*
X0108229Y0080736D01*
X0107612Y0081353D01*
X0106378Y0081353D01*
X0105760Y0080736D01*
X0104546Y0080736D02*
X0104546Y0078267D01*
X0103929Y0077650D01*
X0102695Y0077650D01*
X0102077Y0078267D01*
X0102077Y0080736D02*
X0102695Y0081353D01*
X0103929Y0081353D01*
X0104546Y0080736D01*
X0124176Y0079502D02*
X0124176Y0078267D01*
X0124793Y0077650D01*
X0126645Y0077650D01*
X0126645Y0081353D01*
X0126645Y0080119D02*
X0124793Y0080119D01*
X0124176Y0079502D01*
X0131543Y0079502D02*
X0133394Y0079502D01*
X0134011Y0080119D01*
X0134011Y0080736D01*
X0133394Y0081353D01*
X0132160Y0081353D01*
X0131543Y0080736D01*
X0131543Y0078267D01*
X0132160Y0077650D01*
X0133394Y0077650D01*
X0134011Y0078267D01*
X0135226Y0077650D02*
X0137694Y0077650D01*
X0136460Y0077650D02*
X0136460Y0081353D01*
X0137694Y0080119D01*
X0138909Y0080736D02*
X0138909Y0078267D01*
X0139526Y0077650D01*
X0140760Y0077650D01*
X0141378Y0078267D01*
X0138909Y0080736D01*
X0139526Y0081353D01*
X0140760Y0081353D01*
X0141378Y0080736D01*
X0141378Y0078267D01*
X0142592Y0077650D02*
X0145061Y0077650D01*
X0142592Y0080119D01*
X0142592Y0080736D01*
X0143209Y0081353D01*
X0144444Y0081353D01*
X0145061Y0080736D01*
X0161330Y0072285D02*
X0161864Y0072285D01*
X0162932Y0071218D01*
X0162932Y0072285D02*
X0162932Y0070150D01*
X0164019Y0070150D02*
X0164019Y0071751D01*
X0164553Y0072285D01*
X0165621Y0072285D01*
X0165621Y0071218D02*
X0164019Y0071218D01*
X0164019Y0070150D02*
X0165621Y0070150D01*
X0166155Y0070684D01*
X0165621Y0071218D01*
X0167242Y0071751D02*
X0167776Y0072285D01*
X0168843Y0072285D01*
X0169377Y0071751D01*
X0169377Y0070684D01*
X0168843Y0070150D01*
X0167776Y0070150D01*
X0167242Y0070684D01*
X0167242Y0071751D01*
X0170465Y0071218D02*
X0170465Y0070684D01*
X0170999Y0070150D01*
X0172600Y0070150D01*
X0172600Y0073353D01*
X0170999Y0073353D01*
X0170465Y0072819D01*
X0170465Y0072285D01*
X0170999Y0071751D01*
X0172600Y0071751D01*
X0170999Y0071751D02*
X0170465Y0071218D01*
X0177582Y0077033D02*
X0178199Y0076416D01*
X0178816Y0076416D01*
X0177582Y0077033D02*
X0177582Y0080119D01*
X0176367Y0080119D02*
X0176367Y0077650D01*
X0177582Y0077650D02*
X0179433Y0077650D01*
X0180051Y0078267D01*
X0180051Y0080119D01*
X0181265Y0079502D02*
X0181265Y0078267D01*
X0181882Y0077650D01*
X0183734Y0077650D01*
X0183734Y0076416D02*
X0183734Y0080119D01*
X0181882Y0080119D01*
X0181265Y0079502D01*
X0184948Y0079502D02*
X0184948Y0078267D01*
X0185565Y0077650D01*
X0186800Y0077650D01*
X0187417Y0078267D01*
X0187417Y0079502D01*
X0186800Y0080119D01*
X0185565Y0080119D01*
X0184948Y0079502D01*
X0188631Y0080736D02*
X0189248Y0081353D01*
X0190483Y0081353D01*
X0191100Y0080736D01*
X0191100Y0078267D01*
X0190483Y0077650D01*
X0189248Y0077650D01*
X0188631Y0078267D01*
X0176367Y0078884D02*
X0175133Y0080119D01*
X0174516Y0080119D01*
X0173298Y0080119D02*
X0172681Y0080119D01*
X0055037Y0149212D02*
X0054420Y0148595D01*
X0053185Y0148595D01*
X0052568Y0149212D01*
X0051354Y0148595D02*
X0048885Y0148595D01*
X0050119Y0148595D02*
X0050119Y0152298D01*
X0051354Y0151064D01*
X0052568Y0151681D02*
X0053185Y0152298D01*
X0054420Y0152298D01*
X0055037Y0151681D01*
X0055037Y0149212D01*
X0038079Y0148630D02*
X0035610Y0148630D01*
X0036844Y0148630D02*
X0036844Y0152333D01*
X0038079Y0151099D01*
X0034396Y0151716D02*
X0034396Y0149248D01*
X0031927Y0151716D01*
X0031927Y0149248D01*
X0032544Y0148630D01*
X0033778Y0148630D01*
X0034396Y0149248D01*
X0034396Y0151716D02*
X0033778Y0152333D01*
X0032544Y0152333D01*
X0031927Y0151716D01*
X0030712Y0151716D02*
X0030712Y0149248D01*
X0028244Y0151716D01*
X0028244Y0149248D01*
X0028861Y0148630D01*
X0030095Y0148630D01*
X0030712Y0149248D01*
X0030712Y0151716D02*
X0030095Y0152333D01*
X0028861Y0152333D01*
X0028244Y0151716D01*
X0027029Y0151099D02*
X0025178Y0151099D01*
X0024561Y0150482D01*
X0024561Y0148630D01*
X0023346Y0148630D02*
X0023346Y0152333D01*
X0020877Y0152333D01*
X0022112Y0150482D02*
X0023346Y0150482D01*
X0027029Y0151099D02*
X0027029Y0148630D01*
D14*
X0041388Y0146358D02*
X0041388Y0153642D01*
X0046112Y0153642D02*
X0046112Y0146358D01*
D15*
X0043750Y0147047D03*
X0043750Y0152953D03*
M02*
