G75*
%MOIN*%
%OFA0B0*%
%FSLAX25Y25*%
%IPPOS*%
%LPD*%
%AMOC8*
5,1,8,0,0,1.08239X$1,22.5*
%
%ADD10C,0.01000*%
%ADD11C,0.05600*%
%ADD12R,0.02400X0.01200*%
%ADD13C,0.02400*%
%ADD14C,0.06000*%
%ADD15R,0.06299X0.05118*%
%ADD16C,0.03000*%
%ADD17C,0.02500*%
D10*
X0246250Y0092500D02*
X0248750Y0095000D01*
X0251250Y0095000D01*
X0251250Y0100000D01*
X0248750Y0100000D01*
X0246250Y0097500D01*
X0248750Y0095000D01*
X0251250Y0095000D02*
X0251250Y0090000D01*
X0248750Y0090000D01*
X0246250Y0092500D01*
X0253750Y0090000D02*
X0256250Y0095000D01*
X0258750Y0092500D01*
X0258750Y0100000D01*
X0256250Y0100000D01*
X0253750Y0097500D01*
X0256250Y0095000D01*
X0243143Y0095000D02*
X0243146Y0095260D01*
X0243156Y0095520D01*
X0243172Y0095780D01*
X0243194Y0096040D01*
X0243223Y0096298D01*
X0243258Y0096556D01*
X0243299Y0096813D01*
X0243347Y0097069D01*
X0243401Y0097324D01*
X0243461Y0097577D01*
X0243527Y0097829D01*
X0243600Y0098079D01*
X0243678Y0098327D01*
X0243763Y0098573D01*
X0243854Y0098817D01*
X0243950Y0099059D01*
X0244053Y0099298D01*
X0244161Y0099535D01*
X0244276Y0099769D01*
X0244395Y0100000D01*
X0244521Y0100228D01*
X0244652Y0100453D01*
X0244789Y0100675D01*
X0244931Y0100893D01*
X0245078Y0101108D01*
X0245230Y0101319D01*
X0245388Y0101526D01*
X0245551Y0101729D01*
X0245718Y0101928D01*
X0245891Y0102123D01*
X0246068Y0102314D01*
X0246250Y0102500D01*
X0246436Y0102682D01*
X0246627Y0102859D01*
X0246822Y0103032D01*
X0247021Y0103199D01*
X0247224Y0103362D01*
X0247431Y0103520D01*
X0247642Y0103672D01*
X0247857Y0103819D01*
X0248075Y0103961D01*
X0248297Y0104098D01*
X0248522Y0104229D01*
X0248750Y0104355D01*
X0248981Y0104474D01*
X0249215Y0104589D01*
X0249452Y0104697D01*
X0249691Y0104800D01*
X0249933Y0104896D01*
X0250177Y0104987D01*
X0250423Y0105072D01*
X0250671Y0105150D01*
X0250921Y0105223D01*
X0251173Y0105289D01*
X0251426Y0105349D01*
X0251681Y0105403D01*
X0251937Y0105451D01*
X0252194Y0105492D01*
X0252452Y0105527D01*
X0252710Y0105556D01*
X0252970Y0105578D01*
X0253230Y0105594D01*
X0253490Y0105604D01*
X0253750Y0105607D01*
X0254010Y0105604D01*
X0254270Y0105594D01*
X0254530Y0105578D01*
X0254790Y0105556D01*
X0255048Y0105527D01*
X0255306Y0105492D01*
X0255563Y0105451D01*
X0255819Y0105403D01*
X0256074Y0105349D01*
X0256327Y0105289D01*
X0256579Y0105223D01*
X0256829Y0105150D01*
X0257077Y0105072D01*
X0257323Y0104987D01*
X0257567Y0104896D01*
X0257809Y0104800D01*
X0258048Y0104697D01*
X0258285Y0104589D01*
X0258519Y0104474D01*
X0258750Y0104355D01*
X0258978Y0104229D01*
X0259203Y0104098D01*
X0259425Y0103961D01*
X0259643Y0103819D01*
X0259858Y0103672D01*
X0260069Y0103520D01*
X0260276Y0103362D01*
X0260479Y0103199D01*
X0260678Y0103032D01*
X0260873Y0102859D01*
X0261064Y0102682D01*
X0261250Y0102500D01*
X0261432Y0102314D01*
X0261609Y0102123D01*
X0261782Y0101928D01*
X0261949Y0101729D01*
X0262112Y0101526D01*
X0262270Y0101319D01*
X0262422Y0101108D01*
X0262569Y0100893D01*
X0262711Y0100675D01*
X0262848Y0100453D01*
X0262979Y0100228D01*
X0263105Y0100000D01*
X0263224Y0099769D01*
X0263339Y0099535D01*
X0263447Y0099298D01*
X0263550Y0099059D01*
X0263646Y0098817D01*
X0263737Y0098573D01*
X0263822Y0098327D01*
X0263900Y0098079D01*
X0263973Y0097829D01*
X0264039Y0097577D01*
X0264099Y0097324D01*
X0264153Y0097069D01*
X0264201Y0096813D01*
X0264242Y0096556D01*
X0264277Y0096298D01*
X0264306Y0096040D01*
X0264328Y0095780D01*
X0264344Y0095520D01*
X0264354Y0095260D01*
X0264357Y0095000D01*
X0264354Y0094740D01*
X0264344Y0094480D01*
X0264328Y0094220D01*
X0264306Y0093960D01*
X0264277Y0093702D01*
X0264242Y0093444D01*
X0264201Y0093187D01*
X0264153Y0092931D01*
X0264099Y0092676D01*
X0264039Y0092423D01*
X0263973Y0092171D01*
X0263900Y0091921D01*
X0263822Y0091673D01*
X0263737Y0091427D01*
X0263646Y0091183D01*
X0263550Y0090941D01*
X0263447Y0090702D01*
X0263339Y0090465D01*
X0263224Y0090231D01*
X0263105Y0090000D01*
X0262979Y0089772D01*
X0262848Y0089547D01*
X0262711Y0089325D01*
X0262569Y0089107D01*
X0262422Y0088892D01*
X0262270Y0088681D01*
X0262112Y0088474D01*
X0261949Y0088271D01*
X0261782Y0088072D01*
X0261609Y0087877D01*
X0261432Y0087686D01*
X0261250Y0087500D01*
X0261064Y0087318D01*
X0260873Y0087141D01*
X0260678Y0086968D01*
X0260479Y0086801D01*
X0260276Y0086638D01*
X0260069Y0086480D01*
X0259858Y0086328D01*
X0259643Y0086181D01*
X0259425Y0086039D01*
X0259203Y0085902D01*
X0258978Y0085771D01*
X0258750Y0085645D01*
X0258519Y0085526D01*
X0258285Y0085411D01*
X0258048Y0085303D01*
X0257809Y0085200D01*
X0257567Y0085104D01*
X0257323Y0085013D01*
X0257077Y0084928D01*
X0256829Y0084850D01*
X0256579Y0084777D01*
X0256327Y0084711D01*
X0256074Y0084651D01*
X0255819Y0084597D01*
X0255563Y0084549D01*
X0255306Y0084508D01*
X0255048Y0084473D01*
X0254790Y0084444D01*
X0254530Y0084422D01*
X0254270Y0084406D01*
X0254010Y0084396D01*
X0253750Y0084393D01*
X0253490Y0084396D01*
X0253230Y0084406D01*
X0252970Y0084422D01*
X0252710Y0084444D01*
X0252452Y0084473D01*
X0252194Y0084508D01*
X0251937Y0084549D01*
X0251681Y0084597D01*
X0251426Y0084651D01*
X0251173Y0084711D01*
X0250921Y0084777D01*
X0250671Y0084850D01*
X0250423Y0084928D01*
X0250177Y0085013D01*
X0249933Y0085104D01*
X0249691Y0085200D01*
X0249452Y0085303D01*
X0249215Y0085411D01*
X0248981Y0085526D01*
X0248750Y0085645D01*
X0248522Y0085771D01*
X0248297Y0085902D01*
X0248075Y0086039D01*
X0247857Y0086181D01*
X0247642Y0086328D01*
X0247431Y0086480D01*
X0247224Y0086638D01*
X0247021Y0086801D01*
X0246822Y0086968D01*
X0246627Y0087141D01*
X0246436Y0087318D01*
X0246250Y0087500D01*
X0246068Y0087686D01*
X0245891Y0087877D01*
X0245718Y0088072D01*
X0245551Y0088271D01*
X0245388Y0088474D01*
X0245230Y0088681D01*
X0245078Y0088892D01*
X0244931Y0089107D01*
X0244789Y0089325D01*
X0244652Y0089547D01*
X0244521Y0089772D01*
X0244395Y0090000D01*
X0244276Y0090231D01*
X0244161Y0090465D01*
X0244053Y0090702D01*
X0243950Y0090941D01*
X0243854Y0091183D01*
X0243763Y0091427D01*
X0243678Y0091673D01*
X0243600Y0091921D01*
X0243527Y0092171D01*
X0243461Y0092423D01*
X0243401Y0092676D01*
X0243347Y0092931D01*
X0243299Y0093187D01*
X0243258Y0093444D01*
X0243223Y0093702D01*
X0243194Y0093960D01*
X0243172Y0094220D01*
X0243156Y0094480D01*
X0243146Y0094740D01*
X0243143Y0095000D01*
X0258750Y0092500D02*
X0258750Y0090000D01*
X0261250Y0092500D02*
X0261250Y0097500D01*
D11*
X0023750Y0035000D02*
X0023750Y0010000D01*
X0033750Y0010000D02*
X0033750Y0035000D01*
X0043750Y0035000D02*
X0043750Y0010000D01*
X0053750Y0010000D02*
X0053750Y0035000D01*
X0063750Y0035000D02*
X0063750Y0010000D01*
X0073750Y0010000D02*
X0073750Y0035000D01*
X0083750Y0035000D02*
X0083750Y0010000D01*
X0093750Y0010000D02*
X0093750Y0035000D01*
X0103750Y0035000D02*
X0103750Y0010000D01*
X0113750Y0010000D02*
X0113750Y0035000D01*
X0123750Y0035000D02*
X0123750Y0010000D01*
X0133750Y0010000D02*
X0133750Y0035000D01*
X0143750Y0035000D02*
X0143750Y0010000D01*
X0153750Y0010000D02*
X0153750Y0035000D01*
X0163750Y0035000D02*
X0163750Y0010000D01*
X0173750Y0010000D02*
X0173750Y0035000D01*
X0183750Y0035000D02*
X0183750Y0010000D01*
X0193750Y0010000D02*
X0193750Y0035000D01*
X0203750Y0035000D02*
X0203750Y0010000D01*
X0213750Y0010000D02*
X0213750Y0035000D01*
X0223750Y0035000D02*
X0223750Y0010000D01*
X0233750Y0010000D02*
X0233750Y0035000D01*
X0243750Y0035000D02*
X0243750Y0010000D01*
X0253750Y0010000D02*
X0253750Y0035000D01*
X0263750Y0035000D02*
X0263750Y0010000D01*
D12*
X0263750Y0050000D03*
X0253750Y0050000D03*
X0243750Y0050000D03*
X0233750Y0050000D03*
X0223750Y0050000D03*
X0213750Y0050000D03*
X0203750Y0050000D03*
X0193750Y0050000D03*
X0183750Y0050000D03*
X0173750Y0050000D03*
X0163750Y0050000D03*
X0153750Y0050000D03*
X0143750Y0050000D03*
X0133750Y0050000D03*
X0123750Y0050000D03*
X0113750Y0050000D03*
X0103750Y0050000D03*
X0093750Y0050000D03*
X0083750Y0050000D03*
X0073750Y0050000D03*
X0063750Y0050000D03*
X0053750Y0050000D03*
X0043750Y0050000D03*
X0033750Y0050000D03*
X0023750Y0050000D03*
D13*
X0023750Y0035000D01*
X0033750Y0035000D02*
X0033750Y0050000D01*
X0043750Y0050000D02*
X0043750Y0035000D01*
X0053750Y0035000D02*
X0053750Y0050000D01*
X0063750Y0050000D02*
X0063750Y0035000D01*
X0073750Y0035000D02*
X0073750Y0050000D01*
X0083750Y0050000D02*
X0083750Y0035000D01*
X0093750Y0035000D02*
X0093750Y0050000D01*
X0103750Y0050000D02*
X0103750Y0035000D01*
X0113750Y0035000D02*
X0113750Y0050000D01*
X0123750Y0050000D02*
X0123750Y0035000D01*
X0133750Y0035000D02*
X0133750Y0050000D01*
X0143750Y0050000D02*
X0143750Y0035000D01*
X0153750Y0035000D02*
X0153750Y0050000D01*
X0163750Y0050000D02*
X0163750Y0035000D01*
X0173750Y0035000D02*
X0173750Y0050000D01*
X0183750Y0050000D02*
X0183750Y0035000D01*
X0193750Y0035000D02*
X0193750Y0050000D01*
X0203750Y0050000D02*
X0203750Y0035000D01*
X0213750Y0035000D02*
X0213750Y0050000D01*
X0223750Y0050000D02*
X0223750Y0035000D01*
X0233750Y0035000D02*
X0233750Y0050000D01*
X0243750Y0050000D02*
X0243750Y0035000D01*
X0253750Y0035000D02*
X0253750Y0050000D01*
X0263750Y0050000D02*
X0263750Y0035000D01*
D14*
X0263750Y0122500D03*
X0253750Y0122500D03*
X0243750Y0122500D03*
X0233750Y0122500D03*
X0223750Y0122500D03*
X0213750Y0122500D03*
X0203750Y0122500D03*
X0193750Y0122500D03*
X0183750Y0122500D03*
X0173750Y0122500D03*
X0163750Y0122500D03*
X0153750Y0122500D03*
X0143750Y0122500D03*
X0133750Y0122500D03*
X0123750Y0122500D03*
X0113750Y0122500D03*
X0103750Y0122500D03*
X0093750Y0122500D03*
X0083750Y0122500D03*
X0073750Y0122500D03*
X0063750Y0122500D03*
X0053750Y0122500D03*
X0043750Y0122500D03*
X0033750Y0122500D03*
X0023750Y0122500D03*
X0023750Y0132500D03*
X0033750Y0132500D03*
X0043750Y0132500D03*
X0053750Y0132500D03*
X0063750Y0132500D03*
X0073750Y0132500D03*
X0083750Y0132500D03*
X0093750Y0132500D03*
X0103750Y0132500D03*
X0113750Y0132500D03*
X0123750Y0132500D03*
X0133750Y0132500D03*
X0143750Y0132500D03*
X0153750Y0132500D03*
X0163750Y0132500D03*
X0173750Y0132500D03*
X0183750Y0132500D03*
X0193750Y0132500D03*
X0203750Y0132500D03*
X0213750Y0132500D03*
X0223750Y0132500D03*
X0233750Y0132500D03*
X0243750Y0132500D03*
X0253750Y0132500D03*
X0263750Y0132500D03*
X0263750Y0170000D03*
X0253750Y0170000D03*
X0243750Y0170000D03*
X0233750Y0170000D03*
X0223750Y0170000D03*
X0213750Y0170000D03*
X0203750Y0170000D03*
X0193750Y0170000D03*
X0183750Y0170000D03*
X0173750Y0170000D03*
X0163750Y0170000D03*
X0153750Y0170000D03*
X0143750Y0170000D03*
X0133750Y0170000D03*
X0123750Y0170000D03*
X0113750Y0170000D03*
X0103750Y0170000D03*
X0093750Y0170000D03*
X0083750Y0170000D03*
X0073750Y0170000D03*
X0063750Y0170000D03*
X0053750Y0170000D03*
X0043750Y0170000D03*
X0033750Y0170000D03*
X0023750Y0170000D03*
X0023750Y0180000D03*
X0033750Y0180000D03*
X0043750Y0180000D03*
X0053750Y0180000D03*
X0063750Y0180000D03*
X0073750Y0180000D03*
X0083750Y0180000D03*
X0093750Y0180000D03*
X0103750Y0180000D03*
X0113750Y0180000D03*
X0123750Y0180000D03*
X0133750Y0180000D03*
X0143750Y0180000D03*
X0153750Y0180000D03*
X0163750Y0180000D03*
X0173750Y0180000D03*
X0183750Y0180000D03*
X0193750Y0180000D03*
X0203750Y0180000D03*
X0213750Y0180000D03*
X0223750Y0180000D03*
X0233750Y0180000D03*
X0243750Y0180000D03*
X0253750Y0180000D03*
X0263750Y0180000D03*
D15*
X0043750Y0153937D03*
X0043750Y0146063D03*
D16*
X0037313Y0146063D01*
X0036250Y0145000D01*
X0036250Y0162500D01*
X0038750Y0165000D01*
X0028750Y0165000D02*
X0028750Y0137500D01*
X0033750Y0132500D01*
X0038750Y0127500D01*
X0043750Y0132500D02*
X0036250Y0140000D01*
X0036250Y0145000D01*
X0048750Y0137500D02*
X0051250Y0140000D01*
X0051250Y0155000D01*
X0050187Y0153937D01*
X0043750Y0153937D01*
X0051250Y0155000D02*
X0051250Y0162500D01*
X0048750Y0165000D01*
X0058750Y0165000D02*
X0058750Y0137500D01*
X0063750Y0132500D01*
X0068750Y0127500D01*
X0058750Y0127500D02*
X0053750Y0132500D01*
X0048750Y0137500D01*
X0043750Y0132500D02*
X0048750Y0127500D01*
X0048750Y0117500D02*
X0053750Y0112500D01*
X0053750Y0077500D01*
X0043750Y0067500D01*
X0043750Y0050000D01*
X0043750Y0035000D01*
X0053750Y0035000D02*
X0053750Y0050000D01*
X0053750Y0067500D01*
X0058750Y0072500D01*
X0048750Y0082500D02*
X0033750Y0067500D01*
X0033750Y0050000D01*
X0063750Y0050000D02*
X0063750Y0037500D01*
X0063750Y0050000D02*
X0063750Y0107500D01*
X0068750Y0112500D01*
X0048750Y0107500D02*
X0038750Y0117500D01*
X0048750Y0107500D02*
X0048750Y0082500D01*
X0048750Y0175000D02*
X0053750Y0180000D01*
X0058750Y0175000D02*
X0063750Y0180000D01*
X0043750Y0180000D02*
X0038750Y0175000D01*
X0033750Y0180000D02*
X0028750Y0175000D01*
D17*
X0028750Y0165000D01*
X0038750Y0165000D02*
X0038750Y0175000D01*
X0048750Y0175000D02*
X0048750Y0165000D01*
X0058750Y0165000D02*
X0058750Y0175000D01*
X0068750Y0175000D02*
X0073750Y0180000D01*
X0068750Y0175000D02*
X0068750Y0137500D01*
X0073750Y0132500D01*
X0078750Y0127500D01*
X0078750Y0117500D01*
X0073750Y0112500D01*
X0073750Y0050000D01*
X0083750Y0050000D02*
X0083750Y0112500D01*
X0088750Y0117500D01*
X0088750Y0127500D01*
X0083750Y0132500D01*
X0078750Y0137500D01*
X0078750Y0175000D01*
X0083750Y0180000D01*
X0088750Y0175000D02*
X0093750Y0180000D01*
X0088750Y0175000D02*
X0088750Y0137500D01*
X0093750Y0132500D01*
X0098750Y0127500D01*
X0098750Y0117500D01*
X0093750Y0112500D01*
X0093750Y0050000D01*
X0103750Y0050000D02*
X0103750Y0112500D01*
X0108750Y0117500D01*
X0108750Y0127500D01*
X0103750Y0132500D01*
X0098750Y0137500D01*
X0098750Y0175000D01*
X0103750Y0180000D01*
X0108750Y0175000D02*
X0113750Y0180000D01*
X0108750Y0175000D02*
X0108750Y0137500D01*
X0113750Y0132500D01*
X0118750Y0127500D01*
X0118750Y0117500D01*
X0113750Y0112500D01*
X0113750Y0050000D01*
X0123750Y0050000D02*
X0123750Y0112500D01*
X0128750Y0117500D01*
X0128750Y0127500D01*
X0123750Y0132500D01*
X0118750Y0137500D01*
X0118750Y0175000D01*
X0123750Y0180000D01*
X0128750Y0175000D02*
X0133750Y0180000D01*
X0128750Y0175000D02*
X0128750Y0137500D01*
X0133750Y0132500D01*
X0138750Y0127500D01*
X0138750Y0117500D01*
X0133750Y0112500D01*
X0133750Y0050000D01*
X0143750Y0050000D02*
X0143750Y0112500D01*
X0148750Y0117500D01*
X0148750Y0127500D01*
X0143750Y0132500D01*
X0138750Y0137500D01*
X0138750Y0175000D01*
X0143750Y0180000D01*
X0148750Y0175000D02*
X0153750Y0180000D01*
X0148750Y0175000D02*
X0148750Y0137500D01*
X0153750Y0132500D01*
X0158750Y0127500D01*
X0158750Y0117500D01*
X0153750Y0112500D01*
X0153750Y0050000D01*
X0163750Y0050000D02*
X0163750Y0112500D01*
X0168750Y0117500D01*
X0168750Y0127500D01*
X0163750Y0132500D01*
X0158750Y0137500D01*
X0158750Y0175000D01*
X0163750Y0180000D01*
X0168750Y0175000D02*
X0173750Y0180000D01*
X0168750Y0175000D02*
X0168750Y0137500D01*
X0173750Y0132500D01*
X0178750Y0127500D01*
X0178750Y0117500D01*
X0173750Y0112500D01*
X0173750Y0050000D01*
X0183750Y0050000D02*
X0183750Y0112500D01*
X0188750Y0117500D01*
X0188750Y0127500D01*
X0183750Y0132500D01*
X0178750Y0137500D01*
X0178750Y0175000D01*
X0183750Y0180000D01*
X0188750Y0175000D02*
X0193750Y0180000D01*
X0188750Y0175000D02*
X0188750Y0137500D01*
X0193750Y0132500D01*
X0198750Y0127500D01*
X0198750Y0117500D01*
X0193750Y0112500D01*
X0193750Y0050000D01*
X0203750Y0050000D02*
X0203750Y0112500D01*
X0208750Y0117500D01*
X0208750Y0127500D01*
X0203750Y0132500D01*
X0198750Y0137500D01*
X0198750Y0175000D01*
X0203750Y0180000D01*
X0208750Y0175000D02*
X0213750Y0180000D01*
X0208750Y0175000D02*
X0208750Y0137500D01*
X0213750Y0132500D01*
X0218750Y0127500D01*
X0218750Y0117500D01*
X0213750Y0112500D01*
X0213750Y0050000D01*
X0223750Y0050000D02*
X0223750Y0112500D01*
X0228750Y0117500D01*
X0228750Y0127500D01*
X0223750Y0132500D01*
X0218750Y0137500D01*
X0218750Y0175000D01*
X0223750Y0180000D01*
X0228750Y0175000D02*
X0233750Y0180000D01*
X0228750Y0175000D02*
X0228750Y0137500D01*
X0233750Y0132500D01*
X0238750Y0127500D01*
X0238750Y0117500D01*
X0233750Y0112500D01*
X0233750Y0050000D01*
X0246250Y0055000D02*
X0238750Y0062500D01*
X0238750Y0107500D01*
X0248750Y0117500D01*
X0248750Y0127500D01*
X0253750Y0132500D01*
X0248750Y0137500D01*
X0248750Y0175000D01*
X0253750Y0180000D01*
X0258750Y0175000D02*
X0263750Y0180000D01*
X0258750Y0175000D02*
X0258750Y0137500D01*
X0263750Y0132500D01*
X0268750Y0127500D01*
X0268750Y0055000D01*
X0263750Y0050000D01*
X0253750Y0050000D02*
X0248750Y0055000D01*
X0246250Y0055000D01*
X0068750Y0112500D02*
X0068750Y0127500D01*
X0058750Y0127500D02*
X0058750Y0072500D01*
X0023750Y0077500D02*
X0023750Y0050000D01*
X0023750Y0077500D02*
X0018750Y0082500D01*
X0018750Y0127500D01*
X0023750Y0132500D01*
X0018750Y0137500D01*
X0018750Y0175000D01*
X0023750Y0180000D01*
X0038750Y0127500D02*
X0038750Y0117500D01*
X0048750Y0117500D02*
X0048750Y0127500D01*
M02*
