G75*
%MOIN*%
%OFA0B0*%
%FSLAX25Y25*%
%IPPOS*%
%LPD*%
%AMOC8*
5,1,8,0,0,1.08239X$1,22.5*
%
%ADD10OC8,0.05937*%
%ADD11C,0.06000*%
%ADD12R,0.05118X0.06299*%
%ADD13C,0.03000*%
%ADD14R,0.03962X0.03962*%
%ADD15C,0.02500*%
%ADD16C,0.06000*%
%ADD17C,0.04000*%
D10*
X0061959Y0049000D03*
X0061959Y0059000D03*
X0061959Y0069000D03*
X0061959Y0079000D03*
X0061959Y0089000D03*
X0061959Y0099000D03*
X0061959Y0109000D03*
X0061959Y0119000D03*
X0061959Y0129000D03*
X0061959Y0139000D03*
X0061959Y0149000D03*
X0061959Y0159000D03*
X0061959Y0169000D03*
X0061959Y0179000D03*
X0061959Y0189000D03*
X0061959Y0199000D03*
X0061959Y0209000D03*
X0061959Y0219000D03*
X0061959Y0229000D03*
X0061959Y0239000D03*
X0061959Y0249000D03*
X0061959Y0259000D03*
X0061959Y0269000D03*
X0061959Y0279000D03*
X0061959Y0289000D03*
X0081959Y0289000D03*
X0081959Y0279000D03*
X0081959Y0269000D03*
X0081959Y0259000D03*
X0081959Y0249000D03*
X0081959Y0239000D03*
X0081959Y0229000D03*
X0081959Y0219000D03*
X0081959Y0209000D03*
X0081959Y0199000D03*
X0081959Y0189000D03*
X0081959Y0179000D03*
X0081959Y0169000D03*
X0081959Y0159000D03*
X0081959Y0149000D03*
X0081959Y0139000D03*
X0081959Y0129000D03*
X0081959Y0119000D03*
X0081959Y0109000D03*
X0081959Y0099000D03*
X0081959Y0089000D03*
X0081959Y0079000D03*
X0081959Y0069000D03*
X0081959Y0059000D03*
X0081959Y0049000D03*
D11*
X0145959Y0051500D03*
X0145959Y0041500D03*
X0145959Y0031500D03*
X0155959Y0031500D03*
X0155959Y0041500D03*
X0155959Y0051500D03*
X0155959Y0061500D03*
X0155959Y0071500D03*
X0155959Y0081500D03*
X0155959Y0091500D03*
X0155959Y0101500D03*
X0155959Y0111500D03*
X0155959Y0121500D03*
X0155959Y0131500D03*
X0155959Y0141500D03*
X0155959Y0151500D03*
X0155959Y0161500D03*
X0155959Y0171500D03*
X0155959Y0181500D03*
X0155959Y0191500D03*
X0155959Y0201500D03*
X0155959Y0211500D03*
X0155959Y0221500D03*
X0155959Y0231500D03*
X0155959Y0241500D03*
X0155959Y0251500D03*
X0155959Y0261500D03*
X0155959Y0271500D03*
X0145959Y0271500D03*
X0145959Y0261500D03*
X0145959Y0251500D03*
X0145959Y0241500D03*
X0145959Y0231500D03*
X0145959Y0221500D03*
X0145959Y0211500D03*
X0145959Y0201500D03*
X0145959Y0191500D03*
X0145959Y0181500D03*
X0145959Y0171500D03*
X0145959Y0161500D03*
X0145959Y0151500D03*
X0145959Y0141500D03*
X0145959Y0131500D03*
X0145959Y0121500D03*
X0145959Y0111500D03*
X0145959Y0101500D03*
X0145959Y0091500D03*
X0145959Y0081500D03*
X0145959Y0071500D03*
X0145959Y0061500D03*
D12*
X0107199Y0099000D03*
X0107199Y0109000D03*
X0107199Y0119000D03*
X0107199Y0129000D03*
X0099719Y0129000D03*
X0099719Y0119000D03*
X0099719Y0109000D03*
X0099719Y0099000D03*
X0084896Y0036500D03*
X0077022Y0036500D03*
D13*
X0069896Y0036500D01*
X0081959Y0049000D02*
X0100959Y0049000D01*
X0125959Y0024000D01*
X0148459Y0024000D01*
X0155959Y0031500D01*
X0155959Y0041500D02*
X0150959Y0046500D01*
X0140959Y0046500D02*
X0123459Y0064000D01*
X0105959Y0064000D01*
X0100959Y0059000D01*
X0081959Y0059000D01*
X0084896Y0036500D02*
X0093459Y0036500D01*
D14*
X0058459Y0006500D03*
X0093459Y0036500D03*
X0173459Y0021500D03*
X0173459Y0111500D03*
X0173459Y0206500D03*
X0173459Y0316500D03*
X0058459Y0331500D03*
D15*
X0098459Y0306500D02*
X0081959Y0290000D01*
X0081959Y0289000D01*
X0081959Y0280000D02*
X0100959Y0299000D01*
X0128459Y0299000D01*
X0138459Y0289000D01*
X0138459Y0269000D01*
X0140959Y0266500D01*
X0150959Y0266500D01*
X0155959Y0261500D01*
X0150959Y0256500D02*
X0155959Y0251500D01*
X0150959Y0246500D02*
X0155959Y0241500D01*
X0150959Y0236500D02*
X0155959Y0231500D01*
X0150959Y0226500D02*
X0155959Y0221500D01*
X0150959Y0216500D02*
X0155959Y0211500D01*
X0150959Y0216500D02*
X0140959Y0216500D01*
X0128459Y0229000D01*
X0081959Y0229000D01*
X0081959Y0239000D02*
X0128459Y0239000D01*
X0140959Y0226500D01*
X0150959Y0226500D01*
X0150959Y0236500D02*
X0140959Y0236500D01*
X0128459Y0249000D01*
X0081959Y0249000D01*
X0081959Y0259000D02*
X0128459Y0259000D01*
X0140959Y0246500D01*
X0150959Y0246500D01*
X0150959Y0256500D02*
X0140959Y0256500D01*
X0128459Y0269000D01*
X0081959Y0269000D01*
X0081959Y0279000D02*
X0081959Y0280000D01*
X0098459Y0306500D02*
X0130959Y0306500D01*
X0155959Y0281500D01*
X0155959Y0271500D01*
X0128459Y0209000D02*
X0140959Y0196500D01*
X0150959Y0196500D01*
X0155959Y0191500D01*
X0150959Y0186500D02*
X0155959Y0181500D01*
X0150959Y0176500D02*
X0155959Y0171500D01*
X0150959Y0166500D02*
X0155959Y0161500D01*
X0150959Y0156500D02*
X0155959Y0151500D01*
X0150959Y0146500D02*
X0155959Y0141500D01*
X0150959Y0136500D02*
X0155959Y0131500D01*
X0150959Y0126500D02*
X0155959Y0121500D01*
X0150959Y0116500D02*
X0155959Y0111500D01*
X0150959Y0106500D02*
X0155959Y0101500D01*
X0150959Y0096500D02*
X0155959Y0091500D01*
X0150959Y0086500D02*
X0155959Y0081500D01*
X0150959Y0076500D02*
X0155959Y0071500D01*
X0150959Y0066500D02*
X0155959Y0061500D01*
X0150959Y0056500D02*
X0155959Y0051500D01*
X0150959Y0046500D02*
X0140959Y0046500D01*
X0140959Y0056500D02*
X0150959Y0056500D01*
X0150959Y0066500D02*
X0140959Y0066500D01*
X0128459Y0079000D01*
X0081959Y0079000D01*
X0075959Y0076500D02*
X0063459Y0089000D01*
X0061959Y0079000D02*
X0069896Y0071063D01*
X0069896Y0036500D01*
X0069896Y0009470D01*
X0071070Y0008145D01*
X0072396Y0006608D02*
X0068612Y0007824D01*
X0075959Y0009177D02*
X0076307Y0008828D01*
X0075959Y0009177D02*
X0075959Y0076500D01*
X0081959Y0069000D02*
X0128459Y0069000D01*
X0140959Y0056500D01*
X0140959Y0076500D02*
X0150959Y0076500D01*
X0150959Y0086500D02*
X0140959Y0086500D01*
X0128459Y0099000D01*
X0107199Y0099000D01*
X0107199Y0109000D02*
X0128459Y0109000D01*
X0140959Y0096500D01*
X0150959Y0096500D01*
X0150959Y0106500D02*
X0140959Y0106500D01*
X0128459Y0119000D01*
X0107199Y0119000D01*
X0107199Y0129000D02*
X0128459Y0129000D01*
X0140959Y0116500D01*
X0150959Y0116500D01*
X0150959Y0126500D02*
X0140959Y0126500D01*
X0128459Y0139000D01*
X0081959Y0139000D01*
X0081959Y0129000D02*
X0099719Y0129000D01*
X0099719Y0119000D02*
X0081959Y0119000D01*
X0081959Y0109000D02*
X0099719Y0109000D01*
X0099719Y0099000D02*
X0081959Y0099000D01*
X0081959Y0089000D02*
X0128459Y0089000D01*
X0140959Y0076500D01*
X0140959Y0136500D02*
X0150959Y0136500D01*
X0150959Y0146500D02*
X0140959Y0146500D01*
X0128459Y0159000D01*
X0081959Y0159000D01*
X0081959Y0149000D02*
X0128459Y0149000D01*
X0140959Y0136500D01*
X0140959Y0156500D02*
X0150959Y0156500D01*
X0150959Y0166500D02*
X0140959Y0166500D01*
X0128459Y0179000D01*
X0081959Y0179000D01*
X0081959Y0169000D02*
X0128459Y0169000D01*
X0140959Y0156500D01*
X0140959Y0176500D02*
X0150959Y0176500D01*
X0150959Y0186500D02*
X0140959Y0186500D01*
X0128459Y0199000D01*
X0081959Y0199000D01*
X0081959Y0189000D02*
X0128459Y0189000D01*
X0140959Y0176500D01*
X0128459Y0209000D02*
X0081959Y0209000D01*
D16*
X0058459Y0331500D02*
X0173459Y0316500D01*
X0173459Y0206500D01*
X0173459Y0111500D01*
X0173459Y0021500D01*
X0076307Y0008828D01*
X0071070Y0008145D01*
X0070750Y0008103D01*
X0068612Y0007824D01*
X0058459Y0006500D01*
D17*
X0070750Y0008103D02*
X0070959Y0007894D01*
X0063459Y0079000D02*
X0061959Y0079000D01*
X0061959Y0089000D01*
M02*
