G75*
%MOIN*%
%OFA0B0*%
%FSLAX25Y25*%
%IPPOS*%
%LPD*%
%AMOC8*
5,1,8,0,0,1.08239X$1,22.5*
%
%ADD10C,0.00500*%
%ADD11C,0.00000*%
%ADD12C,0.00300*%
%ADD13C,0.00600*%
D10*
X0013750Y0007500D02*
X0016250Y0005000D01*
X0271250Y0005000D01*
X0273750Y0007500D01*
X0273750Y0045000D01*
X0273750Y0097500D01*
X0286250Y0107500D01*
X0286250Y0195000D01*
X0283750Y0197500D01*
X0003750Y0197500D01*
X0001250Y0195000D01*
X0001250Y0107500D01*
X0013750Y0097500D01*
X0013750Y0045000D01*
X0013750Y0007500D01*
X0008750Y0112500D02*
X0008750Y0142500D01*
X0278750Y0142500D01*
X0278750Y0112500D01*
X0008750Y0112500D01*
X0008750Y0160000D02*
X0008750Y0190000D01*
X0278750Y0190000D01*
X0278750Y0160000D01*
X0008750Y0160000D01*
D11*
X0023750Y0087500D02*
X0023753Y0087745D01*
X0023762Y0087991D01*
X0023777Y0088236D01*
X0023798Y0088480D01*
X0023825Y0088724D01*
X0023858Y0088967D01*
X0023897Y0089210D01*
X0023942Y0089451D01*
X0023993Y0089691D01*
X0024050Y0089930D01*
X0024112Y0090167D01*
X0024181Y0090403D01*
X0024255Y0090637D01*
X0024335Y0090869D01*
X0024420Y0091099D01*
X0024511Y0091327D01*
X0024608Y0091552D01*
X0024710Y0091776D01*
X0024818Y0091996D01*
X0024931Y0092214D01*
X0025049Y0092429D01*
X0025173Y0092641D01*
X0025301Y0092850D01*
X0025435Y0093056D01*
X0025574Y0093258D01*
X0025718Y0093457D01*
X0025867Y0093652D01*
X0026020Y0093844D01*
X0026178Y0094032D01*
X0026340Y0094216D01*
X0026508Y0094395D01*
X0026679Y0094571D01*
X0026855Y0094742D01*
X0027034Y0094910D01*
X0027218Y0095072D01*
X0027406Y0095230D01*
X0027598Y0095383D01*
X0027793Y0095532D01*
X0027992Y0095676D01*
X0028194Y0095815D01*
X0028400Y0095949D01*
X0028609Y0096077D01*
X0028821Y0096201D01*
X0029036Y0096319D01*
X0029254Y0096432D01*
X0029474Y0096540D01*
X0029698Y0096642D01*
X0029923Y0096739D01*
X0030151Y0096830D01*
X0030381Y0096915D01*
X0030613Y0096995D01*
X0030847Y0097069D01*
X0031083Y0097138D01*
X0031320Y0097200D01*
X0031559Y0097257D01*
X0031799Y0097308D01*
X0032040Y0097353D01*
X0032283Y0097392D01*
X0032526Y0097425D01*
X0032770Y0097452D01*
X0033014Y0097473D01*
X0033259Y0097488D01*
X0033505Y0097497D01*
X0033750Y0097500D01*
X0033995Y0097497D01*
X0034241Y0097488D01*
X0034486Y0097473D01*
X0034730Y0097452D01*
X0034974Y0097425D01*
X0035217Y0097392D01*
X0035460Y0097353D01*
X0035701Y0097308D01*
X0035941Y0097257D01*
X0036180Y0097200D01*
X0036417Y0097138D01*
X0036653Y0097069D01*
X0036887Y0096995D01*
X0037119Y0096915D01*
X0037349Y0096830D01*
X0037577Y0096739D01*
X0037802Y0096642D01*
X0038026Y0096540D01*
X0038246Y0096432D01*
X0038464Y0096319D01*
X0038679Y0096201D01*
X0038891Y0096077D01*
X0039100Y0095949D01*
X0039306Y0095815D01*
X0039508Y0095676D01*
X0039707Y0095532D01*
X0039902Y0095383D01*
X0040094Y0095230D01*
X0040282Y0095072D01*
X0040466Y0094910D01*
X0040645Y0094742D01*
X0040821Y0094571D01*
X0040992Y0094395D01*
X0041160Y0094216D01*
X0041322Y0094032D01*
X0041480Y0093844D01*
X0041633Y0093652D01*
X0041782Y0093457D01*
X0041926Y0093258D01*
X0042065Y0093056D01*
X0042199Y0092850D01*
X0042327Y0092641D01*
X0042451Y0092429D01*
X0042569Y0092214D01*
X0042682Y0091996D01*
X0042790Y0091776D01*
X0042892Y0091552D01*
X0042989Y0091327D01*
X0043080Y0091099D01*
X0043165Y0090869D01*
X0043245Y0090637D01*
X0043319Y0090403D01*
X0043388Y0090167D01*
X0043450Y0089930D01*
X0043507Y0089691D01*
X0043558Y0089451D01*
X0043603Y0089210D01*
X0043642Y0088967D01*
X0043675Y0088724D01*
X0043702Y0088480D01*
X0043723Y0088236D01*
X0043738Y0087991D01*
X0043747Y0087745D01*
X0043750Y0087500D01*
X0043747Y0087255D01*
X0043738Y0087009D01*
X0043723Y0086764D01*
X0043702Y0086520D01*
X0043675Y0086276D01*
X0043642Y0086033D01*
X0043603Y0085790D01*
X0043558Y0085549D01*
X0043507Y0085309D01*
X0043450Y0085070D01*
X0043388Y0084833D01*
X0043319Y0084597D01*
X0043245Y0084363D01*
X0043165Y0084131D01*
X0043080Y0083901D01*
X0042989Y0083673D01*
X0042892Y0083448D01*
X0042790Y0083224D01*
X0042682Y0083004D01*
X0042569Y0082786D01*
X0042451Y0082571D01*
X0042327Y0082359D01*
X0042199Y0082150D01*
X0042065Y0081944D01*
X0041926Y0081742D01*
X0041782Y0081543D01*
X0041633Y0081348D01*
X0041480Y0081156D01*
X0041322Y0080968D01*
X0041160Y0080784D01*
X0040992Y0080605D01*
X0040821Y0080429D01*
X0040645Y0080258D01*
X0040466Y0080090D01*
X0040282Y0079928D01*
X0040094Y0079770D01*
X0039902Y0079617D01*
X0039707Y0079468D01*
X0039508Y0079324D01*
X0039306Y0079185D01*
X0039100Y0079051D01*
X0038891Y0078923D01*
X0038679Y0078799D01*
X0038464Y0078681D01*
X0038246Y0078568D01*
X0038026Y0078460D01*
X0037802Y0078358D01*
X0037577Y0078261D01*
X0037349Y0078170D01*
X0037119Y0078085D01*
X0036887Y0078005D01*
X0036653Y0077931D01*
X0036417Y0077862D01*
X0036180Y0077800D01*
X0035941Y0077743D01*
X0035701Y0077692D01*
X0035460Y0077647D01*
X0035217Y0077608D01*
X0034974Y0077575D01*
X0034730Y0077548D01*
X0034486Y0077527D01*
X0034241Y0077512D01*
X0033995Y0077503D01*
X0033750Y0077500D01*
X0033505Y0077503D01*
X0033259Y0077512D01*
X0033014Y0077527D01*
X0032770Y0077548D01*
X0032526Y0077575D01*
X0032283Y0077608D01*
X0032040Y0077647D01*
X0031799Y0077692D01*
X0031559Y0077743D01*
X0031320Y0077800D01*
X0031083Y0077862D01*
X0030847Y0077931D01*
X0030613Y0078005D01*
X0030381Y0078085D01*
X0030151Y0078170D01*
X0029923Y0078261D01*
X0029698Y0078358D01*
X0029474Y0078460D01*
X0029254Y0078568D01*
X0029036Y0078681D01*
X0028821Y0078799D01*
X0028609Y0078923D01*
X0028400Y0079051D01*
X0028194Y0079185D01*
X0027992Y0079324D01*
X0027793Y0079468D01*
X0027598Y0079617D01*
X0027406Y0079770D01*
X0027218Y0079928D01*
X0027034Y0080090D01*
X0026855Y0080258D01*
X0026679Y0080429D01*
X0026508Y0080605D01*
X0026340Y0080784D01*
X0026178Y0080968D01*
X0026020Y0081156D01*
X0025867Y0081348D01*
X0025718Y0081543D01*
X0025574Y0081742D01*
X0025435Y0081944D01*
X0025301Y0082150D01*
X0025173Y0082359D01*
X0025049Y0082571D01*
X0024931Y0082786D01*
X0024818Y0083004D01*
X0024710Y0083224D01*
X0024608Y0083448D01*
X0024511Y0083673D01*
X0024420Y0083901D01*
X0024335Y0084131D01*
X0024255Y0084363D01*
X0024181Y0084597D01*
X0024112Y0084833D01*
X0024050Y0085070D01*
X0023993Y0085309D01*
X0023942Y0085549D01*
X0023897Y0085790D01*
X0023858Y0086033D01*
X0023825Y0086276D01*
X0023798Y0086520D01*
X0023777Y0086764D01*
X0023762Y0087009D01*
X0023753Y0087255D01*
X0023750Y0087500D01*
X0243750Y0067500D02*
X0243753Y0067745D01*
X0243762Y0067991D01*
X0243777Y0068236D01*
X0243798Y0068480D01*
X0243825Y0068724D01*
X0243858Y0068967D01*
X0243897Y0069210D01*
X0243942Y0069451D01*
X0243993Y0069691D01*
X0244050Y0069930D01*
X0244112Y0070167D01*
X0244181Y0070403D01*
X0244255Y0070637D01*
X0244335Y0070869D01*
X0244420Y0071099D01*
X0244511Y0071327D01*
X0244608Y0071552D01*
X0244710Y0071776D01*
X0244818Y0071996D01*
X0244931Y0072214D01*
X0245049Y0072429D01*
X0245173Y0072641D01*
X0245301Y0072850D01*
X0245435Y0073056D01*
X0245574Y0073258D01*
X0245718Y0073457D01*
X0245867Y0073652D01*
X0246020Y0073844D01*
X0246178Y0074032D01*
X0246340Y0074216D01*
X0246508Y0074395D01*
X0246679Y0074571D01*
X0246855Y0074742D01*
X0247034Y0074910D01*
X0247218Y0075072D01*
X0247406Y0075230D01*
X0247598Y0075383D01*
X0247793Y0075532D01*
X0247992Y0075676D01*
X0248194Y0075815D01*
X0248400Y0075949D01*
X0248609Y0076077D01*
X0248821Y0076201D01*
X0249036Y0076319D01*
X0249254Y0076432D01*
X0249474Y0076540D01*
X0249698Y0076642D01*
X0249923Y0076739D01*
X0250151Y0076830D01*
X0250381Y0076915D01*
X0250613Y0076995D01*
X0250847Y0077069D01*
X0251083Y0077138D01*
X0251320Y0077200D01*
X0251559Y0077257D01*
X0251799Y0077308D01*
X0252040Y0077353D01*
X0252283Y0077392D01*
X0252526Y0077425D01*
X0252770Y0077452D01*
X0253014Y0077473D01*
X0253259Y0077488D01*
X0253505Y0077497D01*
X0253750Y0077500D01*
X0253995Y0077497D01*
X0254241Y0077488D01*
X0254486Y0077473D01*
X0254730Y0077452D01*
X0254974Y0077425D01*
X0255217Y0077392D01*
X0255460Y0077353D01*
X0255701Y0077308D01*
X0255941Y0077257D01*
X0256180Y0077200D01*
X0256417Y0077138D01*
X0256653Y0077069D01*
X0256887Y0076995D01*
X0257119Y0076915D01*
X0257349Y0076830D01*
X0257577Y0076739D01*
X0257802Y0076642D01*
X0258026Y0076540D01*
X0258246Y0076432D01*
X0258464Y0076319D01*
X0258679Y0076201D01*
X0258891Y0076077D01*
X0259100Y0075949D01*
X0259306Y0075815D01*
X0259508Y0075676D01*
X0259707Y0075532D01*
X0259902Y0075383D01*
X0260094Y0075230D01*
X0260282Y0075072D01*
X0260466Y0074910D01*
X0260645Y0074742D01*
X0260821Y0074571D01*
X0260992Y0074395D01*
X0261160Y0074216D01*
X0261322Y0074032D01*
X0261480Y0073844D01*
X0261633Y0073652D01*
X0261782Y0073457D01*
X0261926Y0073258D01*
X0262065Y0073056D01*
X0262199Y0072850D01*
X0262327Y0072641D01*
X0262451Y0072429D01*
X0262569Y0072214D01*
X0262682Y0071996D01*
X0262790Y0071776D01*
X0262892Y0071552D01*
X0262989Y0071327D01*
X0263080Y0071099D01*
X0263165Y0070869D01*
X0263245Y0070637D01*
X0263319Y0070403D01*
X0263388Y0070167D01*
X0263450Y0069930D01*
X0263507Y0069691D01*
X0263558Y0069451D01*
X0263603Y0069210D01*
X0263642Y0068967D01*
X0263675Y0068724D01*
X0263702Y0068480D01*
X0263723Y0068236D01*
X0263738Y0067991D01*
X0263747Y0067745D01*
X0263750Y0067500D01*
X0263747Y0067255D01*
X0263738Y0067009D01*
X0263723Y0066764D01*
X0263702Y0066520D01*
X0263675Y0066276D01*
X0263642Y0066033D01*
X0263603Y0065790D01*
X0263558Y0065549D01*
X0263507Y0065309D01*
X0263450Y0065070D01*
X0263388Y0064833D01*
X0263319Y0064597D01*
X0263245Y0064363D01*
X0263165Y0064131D01*
X0263080Y0063901D01*
X0262989Y0063673D01*
X0262892Y0063448D01*
X0262790Y0063224D01*
X0262682Y0063004D01*
X0262569Y0062786D01*
X0262451Y0062571D01*
X0262327Y0062359D01*
X0262199Y0062150D01*
X0262065Y0061944D01*
X0261926Y0061742D01*
X0261782Y0061543D01*
X0261633Y0061348D01*
X0261480Y0061156D01*
X0261322Y0060968D01*
X0261160Y0060784D01*
X0260992Y0060605D01*
X0260821Y0060429D01*
X0260645Y0060258D01*
X0260466Y0060090D01*
X0260282Y0059928D01*
X0260094Y0059770D01*
X0259902Y0059617D01*
X0259707Y0059468D01*
X0259508Y0059324D01*
X0259306Y0059185D01*
X0259100Y0059051D01*
X0258891Y0058923D01*
X0258679Y0058799D01*
X0258464Y0058681D01*
X0258246Y0058568D01*
X0258026Y0058460D01*
X0257802Y0058358D01*
X0257577Y0058261D01*
X0257349Y0058170D01*
X0257119Y0058085D01*
X0256887Y0058005D01*
X0256653Y0057931D01*
X0256417Y0057862D01*
X0256180Y0057800D01*
X0255941Y0057743D01*
X0255701Y0057692D01*
X0255460Y0057647D01*
X0255217Y0057608D01*
X0254974Y0057575D01*
X0254730Y0057548D01*
X0254486Y0057527D01*
X0254241Y0057512D01*
X0253995Y0057503D01*
X0253750Y0057500D01*
X0253505Y0057503D01*
X0253259Y0057512D01*
X0253014Y0057527D01*
X0252770Y0057548D01*
X0252526Y0057575D01*
X0252283Y0057608D01*
X0252040Y0057647D01*
X0251799Y0057692D01*
X0251559Y0057743D01*
X0251320Y0057800D01*
X0251083Y0057862D01*
X0250847Y0057931D01*
X0250613Y0058005D01*
X0250381Y0058085D01*
X0250151Y0058170D01*
X0249923Y0058261D01*
X0249698Y0058358D01*
X0249474Y0058460D01*
X0249254Y0058568D01*
X0249036Y0058681D01*
X0248821Y0058799D01*
X0248609Y0058923D01*
X0248400Y0059051D01*
X0248194Y0059185D01*
X0247992Y0059324D01*
X0247793Y0059468D01*
X0247598Y0059617D01*
X0247406Y0059770D01*
X0247218Y0059928D01*
X0247034Y0060090D01*
X0246855Y0060258D01*
X0246679Y0060429D01*
X0246508Y0060605D01*
X0246340Y0060784D01*
X0246178Y0060968D01*
X0246020Y0061156D01*
X0245867Y0061348D01*
X0245718Y0061543D01*
X0245574Y0061742D01*
X0245435Y0061944D01*
X0245301Y0062150D01*
X0245173Y0062359D01*
X0245049Y0062571D01*
X0244931Y0062786D01*
X0244818Y0063004D01*
X0244710Y0063224D01*
X0244608Y0063448D01*
X0244511Y0063673D01*
X0244420Y0063901D01*
X0244335Y0064131D01*
X0244255Y0064363D01*
X0244181Y0064597D01*
X0244112Y0064833D01*
X0244050Y0065070D01*
X0243993Y0065309D01*
X0243942Y0065549D01*
X0243897Y0065790D01*
X0243858Y0066033D01*
X0243825Y0066276D01*
X0243798Y0066520D01*
X0243777Y0066764D01*
X0243762Y0067009D01*
X0243753Y0067255D01*
X0243750Y0067500D01*
D12*
X0190423Y0078267D02*
X0189805Y0077650D01*
X0188571Y0077650D01*
X0187954Y0078267D01*
X0187954Y0080736D01*
X0188571Y0081353D01*
X0189805Y0081353D01*
X0190423Y0080736D01*
X0186740Y0080736D02*
X0186122Y0081353D01*
X0184888Y0081353D01*
X0184271Y0080736D01*
X0184271Y0080119D01*
X0184888Y0079502D01*
X0186122Y0079502D01*
X0186740Y0078884D01*
X0186740Y0078267D01*
X0186122Y0077650D01*
X0184888Y0077650D01*
X0184271Y0078267D01*
X0183056Y0078267D02*
X0182439Y0077650D01*
X0180588Y0077650D01*
X0180588Y0081353D01*
X0182439Y0081353D01*
X0183056Y0080736D01*
X0183056Y0080119D01*
X0182439Y0079502D01*
X0180588Y0079502D01*
X0179373Y0079502D02*
X0178756Y0078884D01*
X0176904Y0078884D01*
X0176904Y0077650D02*
X0176904Y0081353D01*
X0178756Y0081353D01*
X0179373Y0080736D01*
X0179373Y0079502D01*
X0178139Y0078884D02*
X0179373Y0077650D01*
X0182439Y0079502D02*
X0183056Y0078884D01*
X0183056Y0078267D01*
X0172007Y0077650D02*
X0170155Y0077650D01*
X0169538Y0078267D01*
X0169538Y0080119D01*
X0168324Y0079502D02*
X0167707Y0080119D01*
X0165855Y0080119D01*
X0165855Y0081353D02*
X0165855Y0077650D01*
X0167707Y0077650D01*
X0168324Y0078267D01*
X0168324Y0079502D01*
X0172007Y0080119D02*
X0172007Y0077033D01*
X0171390Y0076416D01*
X0170773Y0076416D01*
X0171772Y0073353D02*
X0171772Y0070150D01*
X0172839Y0070150D02*
X0170704Y0070150D01*
X0169627Y0070150D02*
X0169093Y0070150D01*
X0169093Y0070684D01*
X0169627Y0070684D01*
X0169627Y0070150D01*
X0168005Y0070150D02*
X0165870Y0070150D01*
X0166938Y0070150D02*
X0166938Y0073353D01*
X0165870Y0072285D01*
X0161560Y0071751D02*
X0161560Y0070150D01*
X0161560Y0071751D02*
X0161026Y0072285D01*
X0159424Y0072285D01*
X0159424Y0070150D01*
X0158337Y0070684D02*
X0158337Y0071751D01*
X0157803Y0072285D01*
X0156736Y0072285D01*
X0156202Y0071751D01*
X0156202Y0070684D01*
X0156736Y0070150D01*
X0157803Y0070150D01*
X0158337Y0070684D01*
X0155121Y0070150D02*
X0154053Y0070150D01*
X0154587Y0070150D02*
X0154587Y0072285D01*
X0154053Y0072285D01*
X0152966Y0072285D02*
X0151364Y0072285D01*
X0150830Y0071751D01*
X0151364Y0071218D01*
X0152432Y0071218D01*
X0152966Y0070684D01*
X0152432Y0070150D01*
X0150830Y0070150D01*
X0149746Y0072285D02*
X0149212Y0072285D01*
X0148145Y0071218D01*
X0148145Y0072285D02*
X0148145Y0070150D01*
X0147057Y0071218D02*
X0144922Y0071218D01*
X0144922Y0071751D02*
X0144922Y0070684D01*
X0145456Y0070150D01*
X0146523Y0070150D01*
X0147057Y0071218D02*
X0147057Y0071751D01*
X0146523Y0072285D01*
X0145456Y0072285D01*
X0144922Y0071751D01*
X0143835Y0072285D02*
X0142767Y0070150D01*
X0141699Y0072285D01*
X0137389Y0072285D02*
X0135788Y0072285D01*
X0135254Y0071751D01*
X0135254Y0070684D01*
X0135788Y0070150D01*
X0137389Y0070150D01*
X0137389Y0073353D01*
X0134170Y0072285D02*
X0133636Y0072285D01*
X0132568Y0071218D01*
X0132568Y0072285D02*
X0132568Y0070150D01*
X0131481Y0070150D02*
X0131481Y0071751D01*
X0130947Y0072285D01*
X0129879Y0072285D01*
X0129879Y0071218D02*
X0129345Y0070684D01*
X0129879Y0070150D01*
X0131481Y0070150D01*
X0131481Y0071218D02*
X0129879Y0071218D01*
X0128258Y0071751D02*
X0127724Y0072285D01*
X0126657Y0072285D01*
X0126123Y0071751D01*
X0126123Y0070684D01*
X0126657Y0070150D01*
X0127724Y0070150D01*
X0128258Y0070684D01*
X0128258Y0071751D01*
X0125035Y0071218D02*
X0125035Y0070684D01*
X0124501Y0070150D01*
X0122900Y0070150D01*
X0122900Y0073353D01*
X0124501Y0073353D01*
X0125035Y0072819D01*
X0125035Y0072285D01*
X0124501Y0071751D01*
X0122900Y0071751D01*
X0124501Y0071751D02*
X0125035Y0071218D01*
X0123509Y0076416D02*
X0124126Y0077033D01*
X0124126Y0080119D01*
X0122274Y0080119D01*
X0121657Y0079502D01*
X0121657Y0078267D01*
X0122274Y0077650D01*
X0124126Y0077650D01*
X0125340Y0077650D02*
X0125340Y0081353D01*
X0125958Y0080119D02*
X0127192Y0080119D01*
X0127809Y0079502D01*
X0127809Y0077650D01*
X0129641Y0078267D02*
X0129641Y0080736D01*
X0129024Y0080119D02*
X0130258Y0080119D01*
X0129641Y0078267D02*
X0130258Y0077650D01*
X0125958Y0080119D02*
X0125340Y0079502D01*
X0123509Y0076416D02*
X0122892Y0076416D01*
X0120436Y0077650D02*
X0119202Y0077650D01*
X0119819Y0077650D02*
X0119819Y0080119D01*
X0119202Y0080119D01*
X0117984Y0080119D02*
X0117367Y0080119D01*
X0116133Y0078884D01*
X0116133Y0077650D02*
X0116133Y0080119D01*
X0114918Y0080119D02*
X0114918Y0077033D01*
X0114301Y0076416D01*
X0113684Y0076416D01*
X0113067Y0077650D02*
X0114918Y0077650D01*
X0113067Y0077650D02*
X0112449Y0078267D01*
X0112449Y0080119D01*
X0111235Y0079502D02*
X0111235Y0078267D01*
X0110618Y0077650D01*
X0108766Y0077650D01*
X0108766Y0076416D02*
X0108766Y0080119D01*
X0110618Y0080119D01*
X0111235Y0079502D01*
X0107552Y0079502D02*
X0107552Y0078267D01*
X0106935Y0077650D01*
X0105700Y0077650D01*
X0105083Y0078267D01*
X0105083Y0079502D01*
X0105700Y0080119D01*
X0106935Y0080119D01*
X0107552Y0079502D01*
X0103869Y0080736D02*
X0103252Y0081353D01*
X0102017Y0081353D01*
X0101400Y0080736D01*
X0101400Y0078267D01*
X0102017Y0077650D01*
X0103252Y0077650D01*
X0103869Y0078267D01*
X0119819Y0081353D02*
X0119819Y0081970D01*
X0135162Y0080119D02*
X0135162Y0078884D01*
X0136397Y0077650D01*
X0137618Y0078267D02*
X0138235Y0077650D01*
X0139469Y0077650D01*
X0140086Y0078267D01*
X0141301Y0077650D02*
X0142535Y0078884D01*
X0142535Y0080119D01*
X0141301Y0081353D01*
X0140086Y0080736D02*
X0139469Y0081353D01*
X0138235Y0081353D01*
X0137618Y0080736D01*
X0137618Y0078267D01*
X0135162Y0080119D02*
X0136397Y0081353D01*
X0147439Y0080736D02*
X0148056Y0081353D01*
X0149291Y0081353D01*
X0149908Y0080736D01*
X0149908Y0080119D01*
X0147439Y0077650D01*
X0149908Y0077650D01*
X0151122Y0078267D02*
X0153591Y0080736D01*
X0153591Y0078267D01*
X0152974Y0077650D01*
X0151740Y0077650D01*
X0151122Y0078267D01*
X0151122Y0080736D01*
X0151740Y0081353D01*
X0152974Y0081353D01*
X0153591Y0080736D01*
X0154806Y0080119D02*
X0156040Y0081353D01*
X0156040Y0077650D01*
X0154806Y0077650D02*
X0157274Y0077650D01*
X0158489Y0078267D02*
X0159106Y0077650D01*
X0160340Y0077650D01*
X0160957Y0078267D01*
X0160957Y0080736D01*
X0160340Y0081353D01*
X0159106Y0081353D01*
X0158489Y0080736D01*
X0158489Y0080119D01*
X0159106Y0079502D01*
X0160957Y0079502D01*
X0154587Y0073887D02*
X0154587Y0073353D01*
X0170704Y0072285D02*
X0171772Y0073353D01*
X0164473Y0105150D02*
X0162004Y0105150D01*
X0164473Y0107619D01*
X0164473Y0108236D01*
X0163855Y0108853D01*
X0162621Y0108853D01*
X0162004Y0108236D01*
X0157106Y0108853D02*
X0157106Y0105150D01*
X0154637Y0108853D01*
X0154637Y0105150D01*
X0153423Y0105767D02*
X0152806Y0105150D01*
X0151571Y0105150D01*
X0150954Y0105767D01*
X0150954Y0108236D01*
X0151571Y0108853D01*
X0152806Y0108853D01*
X0153423Y0108236D01*
X0153423Y0105767D01*
X0149733Y0105150D02*
X0148499Y0105150D01*
X0149116Y0105150D02*
X0149116Y0108853D01*
X0148499Y0108853D02*
X0149733Y0108853D01*
X0147284Y0108236D02*
X0146667Y0108853D01*
X0145433Y0108853D01*
X0144816Y0108236D01*
X0144816Y0107619D01*
X0145433Y0107002D01*
X0146667Y0107002D01*
X0147284Y0106384D01*
X0147284Y0105767D01*
X0146667Y0105150D01*
X0145433Y0105150D01*
X0144816Y0105767D01*
X0143601Y0105150D02*
X0143601Y0108853D01*
X0141133Y0108853D02*
X0143601Y0105150D01*
X0141133Y0105150D02*
X0141133Y0108853D01*
X0139918Y0108853D02*
X0137449Y0108853D01*
X0137449Y0105150D01*
X0139918Y0105150D01*
X0138684Y0107002D02*
X0137449Y0107002D01*
X0136235Y0108853D02*
X0133766Y0108853D01*
X0132552Y0108853D02*
X0130083Y0105150D01*
X0128869Y0105150D02*
X0126400Y0105150D01*
X0126400Y0108853D01*
X0128869Y0108853D01*
X0130083Y0108853D02*
X0132552Y0105150D01*
X0135001Y0105150D02*
X0135001Y0108853D01*
X0127634Y0107002D02*
X0126400Y0107002D01*
X0126400Y0152650D02*
X0128869Y0152650D01*
X0130083Y0152650D02*
X0132552Y0156353D01*
X0133766Y0156353D02*
X0136235Y0156353D01*
X0137449Y0156353D02*
X0137449Y0152650D01*
X0139918Y0152650D01*
X0141133Y0152650D02*
X0141133Y0156353D01*
X0143601Y0152650D01*
X0143601Y0156353D01*
X0144816Y0155736D02*
X0144816Y0155119D01*
X0145433Y0154502D01*
X0146667Y0154502D01*
X0147284Y0153884D01*
X0147284Y0153267D01*
X0146667Y0152650D01*
X0145433Y0152650D01*
X0144816Y0153267D01*
X0144816Y0155736D02*
X0145433Y0156353D01*
X0146667Y0156353D01*
X0147284Y0155736D01*
X0148499Y0156353D02*
X0149733Y0156353D01*
X0149116Y0156353D02*
X0149116Y0152650D01*
X0148499Y0152650D02*
X0149733Y0152650D01*
X0150954Y0153267D02*
X0151571Y0152650D01*
X0152806Y0152650D01*
X0153423Y0153267D01*
X0153423Y0155736D01*
X0152806Y0156353D01*
X0151571Y0156353D01*
X0150954Y0155736D01*
X0150954Y0153267D01*
X0154637Y0152650D02*
X0154637Y0156353D01*
X0157106Y0152650D01*
X0157106Y0156353D01*
X0162004Y0155119D02*
X0163238Y0156353D01*
X0163238Y0152650D01*
X0162004Y0152650D02*
X0164473Y0152650D01*
X0139918Y0156353D02*
X0137449Y0156353D01*
X0137449Y0154502D02*
X0138684Y0154502D01*
X0135001Y0156353D02*
X0135001Y0152650D01*
X0132552Y0152650D02*
X0130083Y0156353D01*
X0128869Y0156353D02*
X0126400Y0156353D01*
X0126400Y0152650D01*
X0126400Y0154502D02*
X0127634Y0154502D01*
X0017686Y0166767D02*
X0017068Y0166150D01*
X0015834Y0166150D01*
X0015217Y0166767D01*
X0017686Y0169236D01*
X0017686Y0166767D01*
X0015217Y0166767D02*
X0015217Y0169236D01*
X0015834Y0169853D01*
X0017068Y0169853D01*
X0017686Y0169236D01*
X0014002Y0169853D02*
X0011534Y0169853D01*
X0011534Y0168002D01*
X0012768Y0168619D01*
X0013385Y0168619D01*
X0014002Y0168002D01*
X0014002Y0166767D01*
X0013385Y0166150D01*
X0012151Y0166150D01*
X0011534Y0166767D01*
X0013385Y0181150D02*
X0013385Y0184853D01*
X0011534Y0183002D01*
X0014002Y0183002D01*
X0015217Y0183619D02*
X0015834Y0183002D01*
X0017686Y0183002D01*
X0017686Y0184236D02*
X0017068Y0184853D01*
X0015834Y0184853D01*
X0015217Y0184236D01*
X0015217Y0183619D01*
X0015217Y0181767D02*
X0015834Y0181150D01*
X0017068Y0181150D01*
X0017686Y0181767D01*
X0017686Y0184236D01*
X0017068Y0137353D02*
X0015834Y0137353D01*
X0015217Y0136736D01*
X0015217Y0136119D01*
X0015834Y0135502D01*
X0017686Y0135502D01*
X0017686Y0136736D02*
X0017068Y0137353D01*
X0017686Y0136736D02*
X0017686Y0134267D01*
X0017068Y0133650D01*
X0015834Y0133650D01*
X0015217Y0134267D01*
X0014002Y0135502D02*
X0011534Y0135502D01*
X0013385Y0137353D01*
X0013385Y0133650D01*
X0014002Y0122353D02*
X0011534Y0122353D01*
X0011534Y0120502D01*
X0012768Y0121119D01*
X0013385Y0121119D01*
X0014002Y0120502D01*
X0014002Y0119267D01*
X0013385Y0118650D01*
X0012151Y0118650D01*
X0011534Y0119267D01*
X0015217Y0119267D02*
X0015834Y0118650D01*
X0017068Y0118650D01*
X0017686Y0119267D01*
X0017686Y0121736D01*
X0015217Y0119267D01*
X0015217Y0121736D01*
X0015834Y0122353D01*
X0017068Y0122353D01*
X0017686Y0121736D01*
X0270217Y0121736D02*
X0270834Y0122353D01*
X0272068Y0122353D01*
X0272686Y0121736D01*
X0272686Y0121119D01*
X0270217Y0118650D01*
X0272686Y0118650D01*
X0272686Y0133650D02*
X0270217Y0133650D01*
X0271451Y0133650D02*
X0271451Y0137353D01*
X0270217Y0136119D01*
X0270217Y0166150D02*
X0272686Y0168619D01*
X0272686Y0169236D01*
X0272068Y0169853D01*
X0270834Y0169853D01*
X0270217Y0169236D01*
X0270217Y0166150D02*
X0272686Y0166150D01*
X0272686Y0181150D02*
X0270217Y0181150D01*
X0271451Y0181150D02*
X0271451Y0184853D01*
X0270217Y0183619D01*
D13*
X0150455Y0091605D02*
X0150455Y0090705D01*
X0150455Y0088903D02*
X0150455Y0085300D01*
X0149554Y0085300D02*
X0151356Y0085300D01*
X0153238Y0085300D02*
X0155940Y0085300D01*
X0156841Y0086201D01*
X0156841Y0088002D01*
X0155940Y0088903D01*
X0153238Y0088903D01*
X0153238Y0090705D02*
X0153238Y0085300D01*
X0150455Y0088903D02*
X0149554Y0088903D01*
X0147633Y0088903D02*
X0144030Y0085300D01*
X0142108Y0087102D02*
X0138505Y0087102D01*
X0138505Y0088002D02*
X0138505Y0086201D01*
X0139406Y0085300D01*
X0141207Y0085300D01*
X0142108Y0087102D02*
X0142108Y0088002D01*
X0141207Y0088903D01*
X0139406Y0088903D01*
X0138505Y0088002D01*
X0136583Y0085300D02*
X0132980Y0085300D01*
X0132980Y0090705D01*
X0131059Y0090705D02*
X0127456Y0090705D01*
X0127456Y0085300D01*
X0125574Y0085300D02*
X0123772Y0087102D01*
X0123772Y0088903D01*
X0125574Y0090705D01*
X0127456Y0088002D02*
X0129257Y0088002D01*
X0116326Y0085300D02*
X0112723Y0090705D01*
X0110801Y0090705D02*
X0107198Y0090705D01*
X0107198Y0085300D01*
X0110801Y0085300D01*
X0112723Y0085300D02*
X0116326Y0090705D01*
X0109000Y0088002D02*
X0107198Y0088002D01*
X0105277Y0085300D02*
X0101674Y0085300D01*
X0101674Y0090705D01*
X0099752Y0090705D02*
X0096149Y0090705D01*
X0096149Y0085300D01*
X0096149Y0088002D02*
X0097950Y0088002D01*
X0088703Y0085300D02*
X0085099Y0090705D01*
X0083178Y0089804D02*
X0082277Y0090705D01*
X0080475Y0090705D01*
X0079575Y0089804D01*
X0079575Y0088903D01*
X0080475Y0088002D01*
X0082277Y0088002D01*
X0083178Y0087102D01*
X0083178Y0086201D01*
X0082277Y0085300D01*
X0080475Y0085300D01*
X0079575Y0086201D01*
X0077653Y0085300D02*
X0077653Y0090705D01*
X0075852Y0088903D01*
X0074050Y0090705D01*
X0074050Y0085300D01*
X0085099Y0085300D02*
X0088703Y0090705D01*
X0144030Y0088903D02*
X0147633Y0085300D01*
X0158762Y0085300D02*
X0160564Y0085300D01*
X0159663Y0085300D02*
X0159663Y0090705D01*
X0158762Y0090705D01*
X0162445Y0088002D02*
X0163346Y0088903D01*
X0165148Y0088903D01*
X0166049Y0088002D01*
X0166049Y0087102D01*
X0162445Y0087102D01*
X0162445Y0088002D02*
X0162445Y0086201D01*
X0163346Y0085300D01*
X0165148Y0085300D01*
X0173495Y0085300D02*
X0173495Y0090705D01*
X0177098Y0090705D01*
X0179020Y0090705D02*
X0182623Y0085300D01*
X0185445Y0086201D02*
X0186346Y0085300D01*
X0185445Y0086201D02*
X0185445Y0089804D01*
X0184544Y0088903D02*
X0186346Y0088903D01*
X0188227Y0088002D02*
X0188227Y0086201D01*
X0189128Y0085300D01*
X0190930Y0085300D01*
X0191831Y0087102D02*
X0188227Y0087102D01*
X0188227Y0088002D02*
X0189128Y0088903D01*
X0190930Y0088903D01*
X0191831Y0088002D01*
X0191831Y0087102D01*
X0193752Y0085300D02*
X0193752Y0088903D01*
X0196455Y0088903D01*
X0197355Y0088002D01*
X0197355Y0085300D01*
X0199277Y0086201D02*
X0199277Y0088002D01*
X0200178Y0088903D01*
X0202880Y0088903D01*
X0202880Y0090705D02*
X0202880Y0085300D01*
X0200178Y0085300D01*
X0199277Y0086201D01*
X0204802Y0086201D02*
X0205702Y0085300D01*
X0207504Y0085300D01*
X0208405Y0087102D02*
X0204802Y0087102D01*
X0204802Y0088002D02*
X0204802Y0086201D01*
X0204802Y0088002D02*
X0205702Y0088903D01*
X0207504Y0088903D01*
X0208405Y0088002D01*
X0208405Y0087102D01*
X0210326Y0087102D02*
X0212128Y0088903D01*
X0213029Y0088903D01*
X0214930Y0090705D02*
X0216732Y0088903D01*
X0216732Y0087102D01*
X0214930Y0085300D01*
X0210326Y0085300D02*
X0210326Y0088903D01*
X0182623Y0090705D02*
X0179020Y0085300D01*
X0177098Y0085300D02*
X0173495Y0085300D01*
X0173495Y0088002D02*
X0175296Y0088002D01*
M02*
