%
M48
M72
T01C0.02362
T02C0.04000
T03C0.12000
%
T01
X52500Y6500
X125000Y24000
X167500Y21500
X167500Y84000
X167500Y94000
X167500Y131500
X167500Y226500
X167500Y316500
X52500Y331500
T02
X140000Y289000
X140000Y279000
X140000Y269000
X140000Y259000
X140000Y249000
X140000Y239000
X140000Y229000
X140000Y219000
X140000Y209000
X140000Y199000
X140000Y189000
X140000Y179000
X140000Y169000
X140000Y159000
X140000Y149000
X140000Y139000
X140000Y129000
X140000Y119000
X140000Y109000
X140000Y99000
X140000Y89000
X140000Y79000
X140000Y69000
X140000Y59000
X140000Y49000
X150000Y49000
X150000Y59000
X150000Y69000
X150000Y79000
X150000Y89000
X150000Y99000
X150000Y109000
X150000Y119000
X150000Y129000
X150000Y139000
X150000Y149000
X150000Y159000
X150000Y169000
X150000Y179000
X150000Y189000
X150000Y199000
X150000Y209000
X150000Y219000
X150000Y229000
X150000Y239000
X150000Y249000
X150000Y259000
X150000Y269000
X150000Y279000
X150000Y289000
T03
X110000Y286500
X110000Y51500
M30
