G75*
%MOIN*%
%OFA0B0*%
%FSLAX25Y25*%
%IPPOS*%
%LPD*%
%AMOC8*
5,1,8,0,0,1.08239X$1,22.5*
%
%ADD10C,0.12800*%
%ADD11C,0.06800*%
%ADD12R,0.35000X3.10000*%
%ADD13R,0.05918X0.07099*%
D10*
X0110000Y0051500D03*
X0110000Y0286500D03*
D11*
X0140000Y0289000D03*
X0140000Y0279000D03*
X0140000Y0269000D03*
X0140000Y0259000D03*
X0140000Y0249000D03*
X0140000Y0239000D03*
X0140000Y0229000D03*
X0140000Y0219000D03*
X0140000Y0209000D03*
X0140000Y0199000D03*
X0140000Y0189000D03*
X0140000Y0179000D03*
X0140000Y0169000D03*
X0140000Y0159000D03*
X0140000Y0149000D03*
X0140000Y0139000D03*
X0140000Y0129000D03*
X0140000Y0119000D03*
X0140000Y0109000D03*
X0140000Y0099000D03*
X0140000Y0089000D03*
X0140000Y0079000D03*
X0140000Y0069000D03*
X0140000Y0059000D03*
X0140000Y0049000D03*
X0150000Y0049000D03*
X0150000Y0059000D03*
X0150000Y0069000D03*
X0150000Y0079000D03*
X0150000Y0089000D03*
X0150000Y0099000D03*
X0150000Y0109000D03*
X0150000Y0119000D03*
X0150000Y0129000D03*
X0150000Y0139000D03*
X0150000Y0149000D03*
X0150000Y0159000D03*
X0150000Y0169000D03*
X0150000Y0179000D03*
X0150000Y0189000D03*
X0150000Y0199000D03*
X0150000Y0209000D03*
X0150000Y0219000D03*
X0150000Y0229000D03*
X0150000Y0239000D03*
X0150000Y0249000D03*
X0150000Y0259000D03*
X0150000Y0269000D03*
X0150000Y0279000D03*
X0150000Y0289000D03*
D12*
X0022500Y0169000D03*
D13*
X0081260Y0074000D03*
X0081260Y0084000D03*
X0081260Y0094000D03*
X0081260Y0104000D03*
X0088740Y0104000D03*
X0088740Y0094000D03*
X0088740Y0084000D03*
X0088740Y0074000D03*
M02*
