G75*
%MOIN*%
%OFA0B0*%
%FSLAX25Y25*%
%IPPOS*%
%LPD*%
%AMOC8*
5,1,8,0,0,1.08239X$1,22.5*
%
%ADD10OC8,0.05937*%
%ADD11C,0.06000*%
%ADD12R,0.05118X0.06299*%
%ADD13C,0.04000*%
%ADD14C,0.03000*%
%ADD15C,0.02500*%
%ADD16R,0.03962X0.03962*%
%ADD17C,0.05906*%
D10*
X0061959Y0049000D03*
X0061959Y0059000D03*
X0061959Y0069000D03*
X0061959Y0079000D03*
X0061959Y0089000D03*
X0061959Y0099000D03*
X0061959Y0109000D03*
X0061959Y0119000D03*
X0061959Y0129000D03*
X0061959Y0139000D03*
X0061959Y0149000D03*
X0061959Y0159000D03*
X0061959Y0169000D03*
X0061959Y0179000D03*
X0061959Y0189000D03*
X0061959Y0199000D03*
X0061959Y0209000D03*
X0061959Y0219000D03*
X0061959Y0229000D03*
X0061959Y0239000D03*
X0061959Y0249000D03*
X0061959Y0259000D03*
X0061959Y0269000D03*
X0061959Y0279000D03*
X0061959Y0289000D03*
X0081959Y0289000D03*
X0081959Y0279000D03*
X0081959Y0269000D03*
X0081959Y0259000D03*
X0081959Y0249000D03*
X0081959Y0239000D03*
X0081959Y0229000D03*
X0081959Y0219000D03*
X0081959Y0209000D03*
X0081959Y0199000D03*
X0081959Y0189000D03*
X0081959Y0179000D03*
X0081959Y0169000D03*
X0081959Y0159000D03*
X0081959Y0149000D03*
X0081959Y0139000D03*
X0081959Y0129000D03*
X0081959Y0119000D03*
X0081959Y0109000D03*
X0081959Y0099000D03*
X0081959Y0089000D03*
X0081959Y0079000D03*
X0081959Y0069000D03*
X0081959Y0059000D03*
X0081959Y0049000D03*
D11*
X0145959Y0051500D03*
X0145959Y0041500D03*
X0145959Y0031500D03*
X0155959Y0031500D03*
X0155959Y0041500D03*
X0155959Y0051500D03*
X0155959Y0061500D03*
X0155959Y0071500D03*
X0155959Y0081500D03*
X0155959Y0091500D03*
X0155959Y0101500D03*
X0155959Y0111500D03*
X0155959Y0121500D03*
X0155959Y0131500D03*
X0155959Y0141500D03*
X0155959Y0151500D03*
X0155959Y0161500D03*
X0155959Y0171500D03*
X0155959Y0181500D03*
X0155959Y0191500D03*
X0155959Y0201500D03*
X0155959Y0211500D03*
X0155959Y0221500D03*
X0155959Y0231500D03*
X0155959Y0241500D03*
X0155959Y0251500D03*
X0155959Y0261500D03*
X0155959Y0271500D03*
X0145959Y0271500D03*
X0145959Y0261500D03*
X0145959Y0251500D03*
X0145959Y0241500D03*
X0145959Y0231500D03*
X0145959Y0221500D03*
X0145959Y0211500D03*
X0145959Y0201500D03*
X0145959Y0191500D03*
X0145959Y0181500D03*
X0145959Y0171500D03*
X0145959Y0161500D03*
X0145959Y0151500D03*
X0145959Y0141500D03*
X0145959Y0131500D03*
X0145959Y0121500D03*
X0145959Y0111500D03*
X0145959Y0101500D03*
X0145959Y0091500D03*
X0145959Y0081500D03*
X0145959Y0071500D03*
X0145959Y0061500D03*
D12*
X0107199Y0099000D03*
X0107199Y0109000D03*
X0107199Y0119000D03*
X0107199Y0129000D03*
X0099719Y0129000D03*
X0099719Y0119000D03*
X0099719Y0109000D03*
X0099719Y0099000D03*
D13*
X0058459Y0006500D02*
X0057396Y0006500D01*
X0061959Y0059000D02*
X0061959Y0069000D01*
X0145959Y0071500D02*
X0145959Y0061500D01*
X0145959Y0051500D02*
X0145959Y0041500D01*
D14*
X0140959Y0036500D01*
X0093459Y0036500D01*
X0083459Y0036500D01*
X0060959Y0059000D01*
X0065959Y0064000D02*
X0060959Y0069000D01*
X0065959Y0064000D02*
X0078459Y0064000D01*
X0085959Y0064000D02*
X0133459Y0064000D01*
X0145959Y0051500D01*
D15*
X0145959Y0061500D02*
X0150959Y0066500D01*
X0173459Y0066500D01*
X0173459Y0076500D02*
X0153459Y0076500D01*
X0148459Y0071500D01*
X0145959Y0071500D01*
X0145959Y0081500D02*
X0128459Y0099000D01*
X0107199Y0099000D01*
X0107199Y0109000D02*
X0128459Y0109000D01*
X0145959Y0091500D01*
X0145959Y0101500D02*
X0128459Y0119000D01*
X0107199Y0119000D01*
X0107199Y0129000D02*
X0128459Y0129000D01*
X0145959Y0111500D01*
X0145959Y0121500D02*
X0123459Y0144000D01*
X0068459Y0144000D01*
X0063459Y0139000D01*
X0061959Y0139000D01*
X0068459Y0134000D02*
X0063459Y0129000D01*
X0061959Y0129000D01*
X0068459Y0124000D02*
X0063459Y0119000D01*
X0061959Y0119000D01*
X0068459Y0114000D02*
X0063459Y0109000D01*
X0061959Y0109000D01*
X0068459Y0104000D02*
X0063459Y0099000D01*
X0061959Y0099000D01*
X0068459Y0104000D02*
X0094719Y0104000D01*
X0099719Y0099000D01*
X0099719Y0109000D02*
X0094719Y0114000D01*
X0068459Y0114000D01*
X0068459Y0124000D02*
X0094719Y0124000D01*
X0099719Y0119000D01*
X0099719Y0129000D02*
X0094719Y0134000D01*
X0068459Y0134000D01*
X0063459Y0149000D02*
X0061959Y0149000D01*
X0063459Y0149000D02*
X0068459Y0154000D01*
X0123459Y0154000D01*
X0145959Y0131500D01*
X0145959Y0141500D02*
X0123459Y0164000D01*
X0068459Y0164000D01*
X0063459Y0159000D01*
X0061959Y0159000D01*
X0061959Y0169000D02*
X0063459Y0169000D01*
X0068459Y0174000D01*
X0123459Y0174000D01*
X0145959Y0151500D01*
X0145959Y0161500D02*
X0123459Y0184000D01*
X0068459Y0184000D01*
X0063459Y0179000D01*
X0061959Y0179000D01*
X0061959Y0189000D02*
X0063459Y0189000D01*
X0068459Y0194000D01*
X0123459Y0194000D01*
X0145959Y0171500D01*
X0145959Y0181500D02*
X0123459Y0204000D01*
X0068459Y0204000D01*
X0063459Y0199000D01*
X0061959Y0199000D01*
X0061959Y0209000D02*
X0063459Y0209000D01*
X0068459Y0214000D01*
X0123459Y0214000D01*
X0145959Y0191500D01*
X0145959Y0201500D02*
X0123459Y0224000D01*
X0068459Y0224000D01*
X0063459Y0219000D01*
X0061959Y0219000D01*
X0061959Y0229000D02*
X0063459Y0229000D01*
X0068459Y0234000D01*
X0123459Y0234000D01*
X0145959Y0211500D01*
X0145959Y0221500D02*
X0123459Y0244000D01*
X0068459Y0244000D01*
X0063459Y0239000D01*
X0061959Y0239000D01*
X0061959Y0249000D02*
X0063459Y0249000D01*
X0068459Y0254000D01*
X0123459Y0254000D01*
X0145959Y0231500D01*
X0145959Y0241500D02*
X0123459Y0264000D01*
X0068459Y0264000D01*
X0063459Y0259000D01*
X0061959Y0259000D01*
X0061959Y0279000D02*
X0061959Y0280000D01*
X0083459Y0301500D01*
X0123459Y0301500D01*
X0138459Y0286500D01*
X0138459Y0269000D01*
X0145959Y0261500D01*
X0145959Y0271500D02*
X0145959Y0289000D01*
X0128459Y0306500D01*
X0078459Y0306500D01*
X0061959Y0290000D01*
X0061959Y0289000D01*
X0078459Y0064000D02*
X0085959Y0064000D01*
X0061959Y0049000D02*
X0079459Y0031500D01*
X0145959Y0031500D01*
D16*
X0173459Y0021500D03*
X0173459Y0111500D03*
X0173459Y0206500D03*
X0173459Y0316500D03*
X0058459Y0331500D03*
X0093459Y0036500D03*
X0058459Y0006500D03*
D17*
X0173459Y0021500D01*
X0173459Y0066500D01*
X0173459Y0076500D01*
X0173459Y0111500D01*
X0173459Y0206500D01*
X0173459Y0316500D01*
X0058459Y0331500D01*
M02*
