%
M48
M72
T01C0.02362
T02C0.03937
T03C0.04000
T04C0.12000
%
T01
X58459Y6500
X93459Y36500
X173459Y21500
X173459Y111500
X173459Y206500
X173459Y316500
X58459Y331500
T02
X61959Y289000
X61959Y279000
X61959Y269000
X61959Y259000
X61959Y249000
X61959Y239000
X61959Y229000
X61959Y219000
X61959Y209000
X61959Y199000
X61959Y189000
X61959Y179000
X61959Y169000
X61959Y159000
X61959Y149000
X61959Y139000
X61959Y129000
X61959Y119000
X61959Y109000
X61959Y99000
X61959Y89000
X61959Y79000
X61959Y69000
X61959Y59000
X61959Y49000
X81959Y49000
X81959Y59000
X81959Y69000
X81959Y79000
X81959Y89000
X81959Y99000
X81959Y109000
X81959Y119000
X81959Y129000
X81959Y139000
X81959Y149000
X81959Y159000
X81959Y169000
X81959Y179000
X81959Y189000
X81959Y199000
X81959Y209000
X81959Y219000
X81959Y229000
X81959Y239000
X81959Y249000
X81959Y259000
X81959Y269000
X81959Y279000
X81959Y289000
T03
X145959Y271500
X145959Y261500
X145959Y251500
X145959Y241500
X145959Y231500
X145959Y221500
X145959Y211500
X145959Y201500
X145959Y191500
X145959Y181500
X145959Y171500
X145959Y161500
X145959Y151500
X145959Y141500
X145959Y131500
X145959Y121500
X145959Y111500
X145959Y101500
X145959Y91500
X145959Y81500
X145959Y71500
X145959Y61500
X145959Y51500
X145959Y41500
X145959Y31500
X155959Y31500
X155959Y41500
X155959Y51500
X155959Y61500
X155959Y71500
X155959Y81500
X155959Y91500
X155959Y101500
X155959Y111500
X155959Y121500
X155959Y131500
X155959Y141500
X155959Y151500
X155959Y161500
X155959Y171500
X155959Y181500
X155959Y191500
X155959Y201500
X155959Y211500
X155959Y221500
X155959Y231500
X155959Y241500
X155959Y251500
X155959Y261500
X155959Y271500
T04
X115959Y286500
X115959Y51500
M30
