G75*
%MOIN*%
%OFA0B0*%
%FSLAX25Y25*%
%IPPOS*%
%LPD*%
%AMOC8*
5,1,8,0,0,1.08239X$1,22.5*
%
%ADD10C,0.01000*%
%ADD11C,0.00400*%
%ADD12C,0.00394*%
%ADD13C,0.00600*%
%ADD14C,0.00900*%
%ADD15C,0.00000*%
%ADD16C,0.00500*%
%ADD17C,0.00300*%
%ADD18R,0.01400X0.05600*%
%ADD19R,0.01969X0.05118*%
D10*
X0053459Y0001500D02*
X0178459Y0016500D01*
X0178459Y0321500D01*
X0053459Y0336500D01*
X0053459Y0001500D01*
D11*
X0067930Y0020027D02*
X0066395Y0021561D01*
X0066395Y0024631D01*
X0069464Y0024631D02*
X0069464Y0021561D01*
X0067930Y0020027D01*
X0070999Y0020794D02*
X0071766Y0020027D01*
X0073301Y0020027D01*
X0074068Y0021561D02*
X0070999Y0021561D01*
X0070999Y0020794D02*
X0070999Y0022329D01*
X0071766Y0023096D01*
X0073301Y0023096D01*
X0074068Y0022329D01*
X0074068Y0021561D01*
X0075603Y0021561D02*
X0077137Y0023096D01*
X0077905Y0023096D01*
X0079439Y0022329D02*
X0080207Y0023096D01*
X0082509Y0023096D01*
X0084043Y0023096D02*
X0084811Y0023096D01*
X0084811Y0020027D01*
X0085578Y0020027D02*
X0084043Y0020027D01*
X0082509Y0020794D02*
X0081741Y0021561D01*
X0080207Y0021561D01*
X0079439Y0022329D01*
X0079439Y0020027D02*
X0081741Y0020027D01*
X0082509Y0020794D01*
X0084811Y0024631D02*
X0084811Y0025398D01*
X0087880Y0023096D02*
X0087113Y0022329D01*
X0087113Y0020794D01*
X0087880Y0020027D01*
X0089414Y0020027D01*
X0090182Y0020794D01*
X0090182Y0022329D01*
X0089414Y0023096D01*
X0087880Y0023096D01*
X0091716Y0023096D02*
X0091716Y0020027D01*
X0091716Y0023096D02*
X0094018Y0023096D01*
X0094786Y0022329D01*
X0094786Y0020027D01*
X0100924Y0020027D02*
X0103994Y0020027D01*
X0105528Y0020027D02*
X0105528Y0020794D01*
X0106296Y0020794D01*
X0106296Y0020027D01*
X0105528Y0020027D01*
X0107830Y0020027D02*
X0110899Y0020027D01*
X0109365Y0020027D02*
X0109365Y0024631D01*
X0107830Y0023096D01*
X0102459Y0024631D02*
X0102459Y0020027D01*
X0100924Y0023096D02*
X0102459Y0024631D01*
X0084600Y0034138D02*
X0077317Y0034138D01*
X0077317Y0038862D02*
X0084600Y0038862D01*
X0075603Y0023096D02*
X0075603Y0020027D01*
X0097347Y0089200D02*
X0100416Y0089200D01*
X0098881Y0089200D02*
X0098881Y0093804D01*
X0097347Y0092269D01*
X0101951Y0093037D02*
X0101951Y0089967D01*
X0105020Y0093037D01*
X0105020Y0089967D01*
X0104253Y0089200D01*
X0102718Y0089200D01*
X0101951Y0089967D01*
X0101951Y0093037D02*
X0102718Y0093804D01*
X0104253Y0093804D01*
X0105020Y0093037D01*
X0106555Y0093037D02*
X0106555Y0089967D01*
X0109624Y0093037D01*
X0109624Y0089967D01*
X0108857Y0089200D01*
X0107322Y0089200D01*
X0106555Y0089967D01*
X0106555Y0093037D02*
X0107322Y0093804D01*
X0108857Y0093804D01*
X0109624Y0093037D01*
X0111155Y0094992D02*
X0111155Y0097294D01*
X0111922Y0098061D01*
X0113457Y0098061D01*
X0114224Y0097294D01*
X0114224Y0094992D01*
X0115759Y0094992D02*
X0111155Y0094992D01*
X0111155Y0099596D02*
X0111155Y0102665D01*
X0111922Y0102665D01*
X0114991Y0099596D01*
X0115759Y0099596D01*
X0115759Y0098061D02*
X0114224Y0096527D01*
X0114224Y0104992D02*
X0114224Y0107294D01*
X0113457Y0108061D01*
X0111922Y0108061D01*
X0111155Y0107294D01*
X0111155Y0104992D01*
X0115759Y0104992D01*
X0114224Y0106527D02*
X0115759Y0108061D01*
X0114991Y0109596D02*
X0115759Y0110363D01*
X0115759Y0111898D01*
X0114991Y0112665D01*
X0113457Y0112665D01*
X0112689Y0111898D01*
X0112689Y0111131D01*
X0113457Y0109596D01*
X0111155Y0109596D01*
X0111155Y0112665D01*
X0111155Y0114992D02*
X0111155Y0117294D01*
X0111922Y0118061D01*
X0113457Y0118061D01*
X0114224Y0117294D01*
X0114224Y0114992D01*
X0115759Y0114992D02*
X0111155Y0114992D01*
X0111922Y0119596D02*
X0111155Y0120363D01*
X0111155Y0121898D01*
X0111922Y0122665D01*
X0112689Y0122665D01*
X0113457Y0121898D01*
X0114224Y0122665D01*
X0114991Y0122665D01*
X0115759Y0121898D01*
X0115759Y0120363D01*
X0114991Y0119596D01*
X0115759Y0118061D02*
X0114224Y0116527D01*
X0113457Y0121131D02*
X0113457Y0121898D01*
X0114224Y0124992D02*
X0114224Y0127294D01*
X0113457Y0128061D01*
X0111922Y0128061D01*
X0111155Y0127294D01*
X0111155Y0124992D01*
X0115759Y0124992D01*
X0114224Y0126527D02*
X0115759Y0128061D01*
X0115759Y0129596D02*
X0115759Y0132665D01*
X0115759Y0131131D02*
X0111155Y0131131D01*
X0112689Y0129596D01*
X0108857Y0134200D02*
X0107322Y0134200D01*
X0106555Y0134967D01*
X0109624Y0138037D01*
X0109624Y0134967D01*
X0108857Y0134200D01*
X0106555Y0134967D02*
X0106555Y0138037D01*
X0107322Y0138804D01*
X0108857Y0138804D01*
X0109624Y0138037D01*
X0105020Y0138037D02*
X0105020Y0134967D01*
X0104253Y0134200D01*
X0102718Y0134200D01*
X0101951Y0134967D01*
X0105020Y0138037D01*
X0104253Y0138804D01*
X0102718Y0138804D01*
X0101951Y0138037D01*
X0101951Y0134967D01*
X0100416Y0134200D02*
X0097347Y0134200D01*
X0098881Y0134200D02*
X0098881Y0138804D01*
X0097347Y0137269D01*
D12*
X0117219Y0029669D02*
X0062258Y0029669D01*
X0062258Y0015890D01*
X0117219Y0015890D01*
X0117219Y0029669D01*
D13*
X0121933Y0072036D02*
X0124402Y0074505D01*
X0121933Y0076974D01*
X0129340Y0076974D01*
X0128105Y0079403D02*
X0129340Y0080637D01*
X0129340Y0083106D01*
X0128105Y0084340D01*
X0126871Y0084340D01*
X0125637Y0083106D01*
X0125637Y0080637D01*
X0124402Y0079403D01*
X0123168Y0079403D01*
X0121933Y0080637D01*
X0121933Y0083106D01*
X0123168Y0084340D01*
X0121933Y0086769D02*
X0129340Y0091706D01*
X0129340Y0086769D02*
X0121933Y0091706D01*
X0121933Y0101501D02*
X0121933Y0106439D01*
X0121933Y0108868D02*
X0129340Y0108868D01*
X0129340Y0113805D01*
X0129340Y0116234D02*
X0129340Y0121172D01*
X0129340Y0123600D02*
X0121933Y0128538D01*
X0121933Y0123600D02*
X0129340Y0128538D01*
X0126871Y0138333D02*
X0124402Y0138333D01*
X0121933Y0140802D01*
X0121933Y0143244D02*
X0121933Y0148181D01*
X0121933Y0150610D02*
X0129340Y0150610D01*
X0129340Y0155548D01*
X0128105Y0157976D02*
X0125637Y0157976D01*
X0124402Y0159211D01*
X0124402Y0161679D01*
X0125637Y0162914D01*
X0126871Y0162914D01*
X0126871Y0157976D01*
X0128105Y0157976D02*
X0129340Y0159211D01*
X0129340Y0161679D01*
X0129340Y0165343D02*
X0124402Y0170280D01*
X0124402Y0172709D02*
X0124402Y0173943D01*
X0129340Y0173943D01*
X0129340Y0172709D02*
X0129340Y0175178D01*
X0129340Y0177620D02*
X0129340Y0181323D01*
X0128105Y0182557D01*
X0125637Y0182557D01*
X0124402Y0181323D01*
X0124402Y0177620D01*
X0121933Y0177620D02*
X0129340Y0177620D01*
X0129340Y0170280D02*
X0124402Y0165343D01*
X0121933Y0173943D02*
X0120699Y0173943D01*
X0121933Y0184986D02*
X0121933Y0186220D01*
X0129340Y0186220D01*
X0129340Y0184986D02*
X0129340Y0187455D01*
X0128105Y0189897D02*
X0125637Y0189897D01*
X0124402Y0191131D01*
X0124402Y0193600D01*
X0125637Y0194834D01*
X0126871Y0194834D01*
X0126871Y0189897D01*
X0128105Y0189897D02*
X0129340Y0191131D01*
X0129340Y0193600D01*
X0129340Y0204629D02*
X0129340Y0209567D01*
X0129340Y0211996D02*
X0121933Y0216933D01*
X0123168Y0220596D02*
X0128105Y0220596D01*
X0129340Y0221831D01*
X0128105Y0224273D02*
X0125637Y0224273D01*
X0124402Y0225507D01*
X0124402Y0227976D01*
X0125637Y0229210D01*
X0126871Y0229210D01*
X0126871Y0224273D01*
X0128105Y0224273D02*
X0129340Y0225507D01*
X0129340Y0227976D01*
X0129340Y0231639D02*
X0124402Y0231639D01*
X0124402Y0235342D01*
X0125637Y0236577D01*
X0129340Y0236577D01*
X0128105Y0239005D02*
X0125637Y0239005D01*
X0124402Y0240240D01*
X0124402Y0243943D01*
X0125637Y0246372D02*
X0124402Y0247606D01*
X0124402Y0250075D01*
X0125637Y0251309D01*
X0126871Y0251309D01*
X0126871Y0246372D01*
X0128105Y0246372D02*
X0129340Y0247606D01*
X0129340Y0250075D01*
X0128105Y0246372D02*
X0125637Y0246372D01*
X0129340Y0243943D02*
X0129340Y0240240D01*
X0128105Y0239005D01*
X0129340Y0243943D02*
X0121933Y0243943D01*
X0124402Y0253738D02*
X0129340Y0253738D01*
X0126871Y0253738D02*
X0124402Y0256207D01*
X0124402Y0257441D01*
X0121933Y0259877D02*
X0124402Y0262345D01*
X0126871Y0262345D01*
X0129340Y0259877D01*
X0124402Y0221831D02*
X0124402Y0219362D01*
X0129340Y0216933D02*
X0121933Y0211996D01*
X0121933Y0209567D02*
X0121933Y0204629D01*
X0129340Y0204629D01*
X0125637Y0204629D02*
X0125637Y0207098D01*
X0125637Y0145712D02*
X0125637Y0143244D01*
X0129340Y0143244D02*
X0121933Y0143244D01*
X0126871Y0138333D02*
X0129340Y0140802D01*
X0121933Y0121172D02*
X0121933Y0116234D01*
X0129340Y0116234D01*
X0125637Y0116234D02*
X0125637Y0118703D01*
X0125637Y0103970D02*
X0125637Y0101501D01*
X0129340Y0101501D02*
X0121933Y0101501D01*
X0106259Y0101500D02*
X0100659Y0101500D01*
X0100659Y0106500D02*
X0106259Y0106500D01*
X0106259Y0111500D02*
X0100659Y0111500D01*
X0100659Y0116500D02*
X0106259Y0116500D01*
X0106259Y0121500D02*
X0100659Y0121500D01*
X0100659Y0126500D02*
X0106259Y0126500D01*
X0106259Y0131500D02*
X0100659Y0131500D01*
X0100659Y0096500D02*
X0106259Y0096500D01*
X0121933Y0072036D02*
X0129340Y0072036D01*
X0095188Y0301308D02*
X0092761Y0301308D01*
X0091548Y0302521D01*
X0089151Y0301308D02*
X0084297Y0301308D01*
X0081901Y0302521D02*
X0081901Y0307375D01*
X0077047Y0302521D01*
X0078261Y0301308D01*
X0080687Y0301308D01*
X0081901Y0302521D01*
X0084297Y0306161D02*
X0086724Y0308588D01*
X0086724Y0301308D01*
X0091548Y0306161D02*
X0092761Y0304948D01*
X0096401Y0304948D01*
X0096401Y0307375D02*
X0095188Y0308588D01*
X0092761Y0308588D01*
X0091548Y0307375D01*
X0091548Y0306161D01*
X0095188Y0301308D02*
X0096401Y0302521D01*
X0096401Y0307375D01*
X0081901Y0307375D02*
X0080687Y0308588D01*
X0078261Y0308588D01*
X0077047Y0307375D01*
X0077047Y0302521D01*
X0074650Y0301308D02*
X0069797Y0301308D01*
X0074650Y0306161D01*
X0074650Y0307375D01*
X0073437Y0308588D01*
X0071010Y0308588D01*
X0069797Y0307375D01*
D14*
X0070795Y0313269D02*
X0067155Y0316909D01*
X0068975Y0316909D02*
X0063515Y0316909D01*
X0063515Y0313269D02*
X0063515Y0324189D01*
X0068975Y0324189D01*
X0070795Y0322369D01*
X0070795Y0318729D01*
X0068975Y0316909D01*
X0074390Y0318729D02*
X0079851Y0318729D01*
X0081671Y0316909D01*
X0081671Y0315089D01*
X0079851Y0313269D01*
X0074390Y0313269D01*
X0074390Y0324189D01*
X0079851Y0324189D01*
X0081671Y0322369D01*
X0081671Y0320549D01*
X0079851Y0318729D01*
X0085266Y0320549D02*
X0087086Y0318729D01*
X0090726Y0318729D01*
X0092546Y0316909D01*
X0092546Y0315089D01*
X0090726Y0313269D01*
X0087086Y0313269D01*
X0085266Y0315089D01*
X0085266Y0320549D02*
X0085266Y0322369D01*
X0087086Y0324189D01*
X0090726Y0324189D01*
X0092546Y0322369D01*
X0096141Y0322369D02*
X0096141Y0315089D01*
X0097961Y0313269D01*
X0101601Y0313269D01*
X0103421Y0315089D01*
X0103421Y0322369D02*
X0101601Y0324189D01*
X0097961Y0324189D01*
X0096141Y0322369D01*
D15*
X0109959Y0286500D02*
X0109961Y0286654D01*
X0109967Y0286809D01*
X0109977Y0286963D01*
X0109991Y0287117D01*
X0110009Y0287270D01*
X0110030Y0287423D01*
X0110056Y0287576D01*
X0110086Y0287727D01*
X0110119Y0287878D01*
X0110157Y0288028D01*
X0110198Y0288177D01*
X0110243Y0288325D01*
X0110292Y0288471D01*
X0110345Y0288617D01*
X0110401Y0288760D01*
X0110461Y0288903D01*
X0110525Y0289043D01*
X0110592Y0289183D01*
X0110663Y0289320D01*
X0110737Y0289455D01*
X0110815Y0289589D01*
X0110896Y0289720D01*
X0110981Y0289849D01*
X0111069Y0289977D01*
X0111160Y0290101D01*
X0111254Y0290224D01*
X0111352Y0290344D01*
X0111452Y0290461D01*
X0111556Y0290576D01*
X0111662Y0290688D01*
X0111771Y0290797D01*
X0111883Y0290903D01*
X0111998Y0291007D01*
X0112115Y0291107D01*
X0112235Y0291205D01*
X0112358Y0291299D01*
X0112482Y0291390D01*
X0112610Y0291478D01*
X0112739Y0291563D01*
X0112870Y0291644D01*
X0113004Y0291722D01*
X0113139Y0291796D01*
X0113276Y0291867D01*
X0113416Y0291934D01*
X0113556Y0291998D01*
X0113699Y0292058D01*
X0113842Y0292114D01*
X0113988Y0292167D01*
X0114134Y0292216D01*
X0114282Y0292261D01*
X0114431Y0292302D01*
X0114581Y0292340D01*
X0114732Y0292373D01*
X0114883Y0292403D01*
X0115036Y0292429D01*
X0115189Y0292450D01*
X0115342Y0292468D01*
X0115496Y0292482D01*
X0115650Y0292492D01*
X0115805Y0292498D01*
X0115959Y0292500D01*
X0116113Y0292498D01*
X0116268Y0292492D01*
X0116422Y0292482D01*
X0116576Y0292468D01*
X0116729Y0292450D01*
X0116882Y0292429D01*
X0117035Y0292403D01*
X0117186Y0292373D01*
X0117337Y0292340D01*
X0117487Y0292302D01*
X0117636Y0292261D01*
X0117784Y0292216D01*
X0117930Y0292167D01*
X0118076Y0292114D01*
X0118219Y0292058D01*
X0118362Y0291998D01*
X0118502Y0291934D01*
X0118642Y0291867D01*
X0118779Y0291796D01*
X0118914Y0291722D01*
X0119048Y0291644D01*
X0119179Y0291563D01*
X0119308Y0291478D01*
X0119436Y0291390D01*
X0119560Y0291299D01*
X0119683Y0291205D01*
X0119803Y0291107D01*
X0119920Y0291007D01*
X0120035Y0290903D01*
X0120147Y0290797D01*
X0120256Y0290688D01*
X0120362Y0290576D01*
X0120466Y0290461D01*
X0120566Y0290344D01*
X0120664Y0290224D01*
X0120758Y0290101D01*
X0120849Y0289977D01*
X0120937Y0289849D01*
X0121022Y0289720D01*
X0121103Y0289589D01*
X0121181Y0289455D01*
X0121255Y0289320D01*
X0121326Y0289183D01*
X0121393Y0289043D01*
X0121457Y0288903D01*
X0121517Y0288760D01*
X0121573Y0288617D01*
X0121626Y0288471D01*
X0121675Y0288325D01*
X0121720Y0288177D01*
X0121761Y0288028D01*
X0121799Y0287878D01*
X0121832Y0287727D01*
X0121862Y0287576D01*
X0121888Y0287423D01*
X0121909Y0287270D01*
X0121927Y0287117D01*
X0121941Y0286963D01*
X0121951Y0286809D01*
X0121957Y0286654D01*
X0121959Y0286500D01*
X0121957Y0286346D01*
X0121951Y0286191D01*
X0121941Y0286037D01*
X0121927Y0285883D01*
X0121909Y0285730D01*
X0121888Y0285577D01*
X0121862Y0285424D01*
X0121832Y0285273D01*
X0121799Y0285122D01*
X0121761Y0284972D01*
X0121720Y0284823D01*
X0121675Y0284675D01*
X0121626Y0284529D01*
X0121573Y0284383D01*
X0121517Y0284240D01*
X0121457Y0284097D01*
X0121393Y0283957D01*
X0121326Y0283817D01*
X0121255Y0283680D01*
X0121181Y0283545D01*
X0121103Y0283411D01*
X0121022Y0283280D01*
X0120937Y0283151D01*
X0120849Y0283023D01*
X0120758Y0282899D01*
X0120664Y0282776D01*
X0120566Y0282656D01*
X0120466Y0282539D01*
X0120362Y0282424D01*
X0120256Y0282312D01*
X0120147Y0282203D01*
X0120035Y0282097D01*
X0119920Y0281993D01*
X0119803Y0281893D01*
X0119683Y0281795D01*
X0119560Y0281701D01*
X0119436Y0281610D01*
X0119308Y0281522D01*
X0119179Y0281437D01*
X0119048Y0281356D01*
X0118914Y0281278D01*
X0118779Y0281204D01*
X0118642Y0281133D01*
X0118502Y0281066D01*
X0118362Y0281002D01*
X0118219Y0280942D01*
X0118076Y0280886D01*
X0117930Y0280833D01*
X0117784Y0280784D01*
X0117636Y0280739D01*
X0117487Y0280698D01*
X0117337Y0280660D01*
X0117186Y0280627D01*
X0117035Y0280597D01*
X0116882Y0280571D01*
X0116729Y0280550D01*
X0116576Y0280532D01*
X0116422Y0280518D01*
X0116268Y0280508D01*
X0116113Y0280502D01*
X0115959Y0280500D01*
X0115805Y0280502D01*
X0115650Y0280508D01*
X0115496Y0280518D01*
X0115342Y0280532D01*
X0115189Y0280550D01*
X0115036Y0280571D01*
X0114883Y0280597D01*
X0114732Y0280627D01*
X0114581Y0280660D01*
X0114431Y0280698D01*
X0114282Y0280739D01*
X0114134Y0280784D01*
X0113988Y0280833D01*
X0113842Y0280886D01*
X0113699Y0280942D01*
X0113556Y0281002D01*
X0113416Y0281066D01*
X0113276Y0281133D01*
X0113139Y0281204D01*
X0113004Y0281278D01*
X0112870Y0281356D01*
X0112739Y0281437D01*
X0112610Y0281522D01*
X0112482Y0281610D01*
X0112358Y0281701D01*
X0112235Y0281795D01*
X0112115Y0281893D01*
X0111998Y0281993D01*
X0111883Y0282097D01*
X0111771Y0282203D01*
X0111662Y0282312D01*
X0111556Y0282424D01*
X0111452Y0282539D01*
X0111352Y0282656D01*
X0111254Y0282776D01*
X0111160Y0282899D01*
X0111069Y0283023D01*
X0110981Y0283151D01*
X0110896Y0283280D01*
X0110815Y0283411D01*
X0110737Y0283545D01*
X0110663Y0283680D01*
X0110592Y0283817D01*
X0110525Y0283957D01*
X0110461Y0284097D01*
X0110401Y0284240D01*
X0110345Y0284383D01*
X0110292Y0284529D01*
X0110243Y0284675D01*
X0110198Y0284823D01*
X0110157Y0284972D01*
X0110119Y0285122D01*
X0110086Y0285273D01*
X0110056Y0285424D01*
X0110030Y0285577D01*
X0110009Y0285730D01*
X0109991Y0285883D01*
X0109977Y0286037D01*
X0109967Y0286191D01*
X0109961Y0286346D01*
X0109959Y0286500D01*
X0109959Y0051500D02*
X0109961Y0051654D01*
X0109967Y0051809D01*
X0109977Y0051963D01*
X0109991Y0052117D01*
X0110009Y0052270D01*
X0110030Y0052423D01*
X0110056Y0052576D01*
X0110086Y0052727D01*
X0110119Y0052878D01*
X0110157Y0053028D01*
X0110198Y0053177D01*
X0110243Y0053325D01*
X0110292Y0053471D01*
X0110345Y0053617D01*
X0110401Y0053760D01*
X0110461Y0053903D01*
X0110525Y0054043D01*
X0110592Y0054183D01*
X0110663Y0054320D01*
X0110737Y0054455D01*
X0110815Y0054589D01*
X0110896Y0054720D01*
X0110981Y0054849D01*
X0111069Y0054977D01*
X0111160Y0055101D01*
X0111254Y0055224D01*
X0111352Y0055344D01*
X0111452Y0055461D01*
X0111556Y0055576D01*
X0111662Y0055688D01*
X0111771Y0055797D01*
X0111883Y0055903D01*
X0111998Y0056007D01*
X0112115Y0056107D01*
X0112235Y0056205D01*
X0112358Y0056299D01*
X0112482Y0056390D01*
X0112610Y0056478D01*
X0112739Y0056563D01*
X0112870Y0056644D01*
X0113004Y0056722D01*
X0113139Y0056796D01*
X0113276Y0056867D01*
X0113416Y0056934D01*
X0113556Y0056998D01*
X0113699Y0057058D01*
X0113842Y0057114D01*
X0113988Y0057167D01*
X0114134Y0057216D01*
X0114282Y0057261D01*
X0114431Y0057302D01*
X0114581Y0057340D01*
X0114732Y0057373D01*
X0114883Y0057403D01*
X0115036Y0057429D01*
X0115189Y0057450D01*
X0115342Y0057468D01*
X0115496Y0057482D01*
X0115650Y0057492D01*
X0115805Y0057498D01*
X0115959Y0057500D01*
X0116113Y0057498D01*
X0116268Y0057492D01*
X0116422Y0057482D01*
X0116576Y0057468D01*
X0116729Y0057450D01*
X0116882Y0057429D01*
X0117035Y0057403D01*
X0117186Y0057373D01*
X0117337Y0057340D01*
X0117487Y0057302D01*
X0117636Y0057261D01*
X0117784Y0057216D01*
X0117930Y0057167D01*
X0118076Y0057114D01*
X0118219Y0057058D01*
X0118362Y0056998D01*
X0118502Y0056934D01*
X0118642Y0056867D01*
X0118779Y0056796D01*
X0118914Y0056722D01*
X0119048Y0056644D01*
X0119179Y0056563D01*
X0119308Y0056478D01*
X0119436Y0056390D01*
X0119560Y0056299D01*
X0119683Y0056205D01*
X0119803Y0056107D01*
X0119920Y0056007D01*
X0120035Y0055903D01*
X0120147Y0055797D01*
X0120256Y0055688D01*
X0120362Y0055576D01*
X0120466Y0055461D01*
X0120566Y0055344D01*
X0120664Y0055224D01*
X0120758Y0055101D01*
X0120849Y0054977D01*
X0120937Y0054849D01*
X0121022Y0054720D01*
X0121103Y0054589D01*
X0121181Y0054455D01*
X0121255Y0054320D01*
X0121326Y0054183D01*
X0121393Y0054043D01*
X0121457Y0053903D01*
X0121517Y0053760D01*
X0121573Y0053617D01*
X0121626Y0053471D01*
X0121675Y0053325D01*
X0121720Y0053177D01*
X0121761Y0053028D01*
X0121799Y0052878D01*
X0121832Y0052727D01*
X0121862Y0052576D01*
X0121888Y0052423D01*
X0121909Y0052270D01*
X0121927Y0052117D01*
X0121941Y0051963D01*
X0121951Y0051809D01*
X0121957Y0051654D01*
X0121959Y0051500D01*
X0121957Y0051346D01*
X0121951Y0051191D01*
X0121941Y0051037D01*
X0121927Y0050883D01*
X0121909Y0050730D01*
X0121888Y0050577D01*
X0121862Y0050424D01*
X0121832Y0050273D01*
X0121799Y0050122D01*
X0121761Y0049972D01*
X0121720Y0049823D01*
X0121675Y0049675D01*
X0121626Y0049529D01*
X0121573Y0049383D01*
X0121517Y0049240D01*
X0121457Y0049097D01*
X0121393Y0048957D01*
X0121326Y0048817D01*
X0121255Y0048680D01*
X0121181Y0048545D01*
X0121103Y0048411D01*
X0121022Y0048280D01*
X0120937Y0048151D01*
X0120849Y0048023D01*
X0120758Y0047899D01*
X0120664Y0047776D01*
X0120566Y0047656D01*
X0120466Y0047539D01*
X0120362Y0047424D01*
X0120256Y0047312D01*
X0120147Y0047203D01*
X0120035Y0047097D01*
X0119920Y0046993D01*
X0119803Y0046893D01*
X0119683Y0046795D01*
X0119560Y0046701D01*
X0119436Y0046610D01*
X0119308Y0046522D01*
X0119179Y0046437D01*
X0119048Y0046356D01*
X0118914Y0046278D01*
X0118779Y0046204D01*
X0118642Y0046133D01*
X0118502Y0046066D01*
X0118362Y0046002D01*
X0118219Y0045942D01*
X0118076Y0045886D01*
X0117930Y0045833D01*
X0117784Y0045784D01*
X0117636Y0045739D01*
X0117487Y0045698D01*
X0117337Y0045660D01*
X0117186Y0045627D01*
X0117035Y0045597D01*
X0116882Y0045571D01*
X0116729Y0045550D01*
X0116576Y0045532D01*
X0116422Y0045518D01*
X0116268Y0045508D01*
X0116113Y0045502D01*
X0115959Y0045500D01*
X0115805Y0045502D01*
X0115650Y0045508D01*
X0115496Y0045518D01*
X0115342Y0045532D01*
X0115189Y0045550D01*
X0115036Y0045571D01*
X0114883Y0045597D01*
X0114732Y0045627D01*
X0114581Y0045660D01*
X0114431Y0045698D01*
X0114282Y0045739D01*
X0114134Y0045784D01*
X0113988Y0045833D01*
X0113842Y0045886D01*
X0113699Y0045942D01*
X0113556Y0046002D01*
X0113416Y0046066D01*
X0113276Y0046133D01*
X0113139Y0046204D01*
X0113004Y0046278D01*
X0112870Y0046356D01*
X0112739Y0046437D01*
X0112610Y0046522D01*
X0112482Y0046610D01*
X0112358Y0046701D01*
X0112235Y0046795D01*
X0112115Y0046893D01*
X0111998Y0046993D01*
X0111883Y0047097D01*
X0111771Y0047203D01*
X0111662Y0047312D01*
X0111556Y0047424D01*
X0111452Y0047539D01*
X0111352Y0047656D01*
X0111254Y0047776D01*
X0111160Y0047899D01*
X0111069Y0048023D01*
X0110981Y0048151D01*
X0110896Y0048280D01*
X0110815Y0048411D01*
X0110737Y0048545D01*
X0110663Y0048680D01*
X0110592Y0048817D01*
X0110525Y0048957D01*
X0110461Y0049097D01*
X0110401Y0049240D01*
X0110345Y0049383D01*
X0110292Y0049529D01*
X0110243Y0049675D01*
X0110198Y0049823D01*
X0110157Y0049972D01*
X0110119Y0050122D01*
X0110086Y0050273D01*
X0110056Y0050424D01*
X0110030Y0050577D01*
X0110009Y0050730D01*
X0109991Y0050883D01*
X0109977Y0051037D01*
X0109967Y0051191D01*
X0109961Y0051346D01*
X0109959Y0051500D01*
D16*
X0057431Y0030614D02*
X0001250Y0030614D01*
X0001250Y0307386D01*
X0057431Y0307386D01*
X0057431Y0030614D01*
X0135959Y0016500D02*
X0165959Y0016500D01*
X0165959Y0286500D01*
X0135959Y0286500D01*
X0135959Y0016500D01*
D17*
X0141105Y0021135D02*
X0142957Y0019284D01*
X0142957Y0021752D01*
X0142340Y0022967D02*
X0142957Y0023584D01*
X0142957Y0025436D01*
X0141723Y0025436D02*
X0141105Y0024818D01*
X0141105Y0023584D01*
X0141723Y0022967D01*
X0142340Y0022967D01*
X0144191Y0022967D02*
X0144809Y0023584D01*
X0144809Y0024818D01*
X0144191Y0025436D01*
X0141723Y0025436D01*
X0141105Y0021135D02*
X0144809Y0021135D01*
X0156105Y0021752D02*
X0156105Y0019284D01*
X0157957Y0019284D01*
X0157340Y0020518D01*
X0157340Y0021135D01*
X0157957Y0021752D01*
X0159191Y0021752D01*
X0159809Y0021135D01*
X0159809Y0019901D01*
X0159191Y0019284D01*
X0159191Y0022967D02*
X0156723Y0022967D01*
X0156105Y0023584D01*
X0156105Y0024818D01*
X0156723Y0025436D01*
X0159191Y0022967D01*
X0159809Y0023584D01*
X0159809Y0024818D01*
X0159191Y0025436D01*
X0156723Y0025436D01*
X0106331Y0043833D02*
X0103863Y0043833D01*
X0103863Y0040130D01*
X0102648Y0040130D02*
X0102648Y0041982D01*
X0102031Y0042599D01*
X0100179Y0042599D01*
X0100179Y0040130D01*
X0098965Y0040748D02*
X0098348Y0040130D01*
X0097113Y0040130D01*
X0096496Y0040748D01*
X0098965Y0043216D01*
X0098965Y0040748D01*
X0098965Y0043216D02*
X0098348Y0043833D01*
X0097113Y0043833D01*
X0096496Y0043216D01*
X0096496Y0040748D01*
X0095282Y0040748D02*
X0094665Y0040130D01*
X0093430Y0040130D01*
X0092813Y0040748D01*
X0095282Y0043216D01*
X0095282Y0040748D01*
X0095282Y0043216D02*
X0094665Y0043833D01*
X0093430Y0043833D01*
X0092813Y0043216D01*
X0092813Y0040748D01*
X0091599Y0040130D02*
X0089130Y0040130D01*
X0090364Y0040130D02*
X0090364Y0043833D01*
X0089130Y0042599D01*
X0103863Y0041982D02*
X0105097Y0041982D01*
X0073324Y0040095D02*
X0070855Y0040095D01*
X0072089Y0040095D02*
X0072089Y0043798D01*
X0070855Y0042564D01*
X0069640Y0043181D02*
X0069023Y0043798D01*
X0067789Y0043798D01*
X0067172Y0043181D01*
X0067172Y0040712D01*
X0067789Y0040095D01*
X0069023Y0040095D01*
X0069640Y0040712D01*
X0142340Y0277967D02*
X0141105Y0279201D01*
X0144809Y0279201D01*
X0144809Y0277967D02*
X0144809Y0280436D01*
X0156105Y0279818D02*
X0156105Y0278584D01*
X0156723Y0277967D01*
X0156105Y0279818D02*
X0156723Y0280436D01*
X0157340Y0280436D01*
X0159809Y0277967D01*
X0159809Y0280436D01*
D18*
X0106859Y0129000D03*
X0106859Y0119000D03*
X0106859Y0109000D03*
X0106859Y0099000D03*
X0100059Y0099000D03*
X0100059Y0109000D03*
X0100059Y0119000D03*
X0100059Y0129000D03*
D19*
X0083911Y0036500D03*
X0078006Y0036500D03*
M02*
